<?xml version="1.0" encoding="UTF-8"?><svg id="Vrstva_2" xmlns="http://www.w3.org/2000/svg" viewBox="0 0 762.7077 105.021"><g id="Components"><g id="d7118982-209b-4495-afad-cdb14285333b_5"><g><path d="M492.7497,0l-55.5272,40.5842L394.4432,0h-.6835l-15.9049,100.0878h27.2859l7.2634-45.519,6.58,6.0323c4.39,4.1125,8.641,8.2273,13.1644,12.2034,5.6235-3.9761,11.2425-8.091,16.8659-12.2034l8.4974-6.0323-7.2634,45.519h27.4193L493.5721,0h-.8225Z" style="fill:#fff;"/><path d="M556.2298,0l-66.0862,100.0878h29.7534l8.0859-13.0259h30.0303l4.1125,13.0259h29.7528L557.6018,0h-1.3719Zm-17.2769,68.4173c2.1944-3.7036,9.8744-18.3722,10.1469-18.3722,.2725,3.5625,2.4675,12.6123,4.1125,18.3722h-14.2594Z" style="fill:#fff;"/><polygon points="602.0261 1.37 598.1861 25.502 623.4104 25.502 611.623 100.0878 640.4154 100.0878 652.2028 25.502 677.4322 25.502 681.2722 1.37 602.0261 1.37" style="fill:#fff;"/><polygon points="758.8727 25.502 762.7077 1.37 696.6221 1.37 680.9947 100.0878 749.1368 100.0878 752.9768 75.9582 713.4875 75.9582 715.8215 61.2874 747.9028 61.2874 751.4652 38.6642 719.384 38.6642 721.4399 25.502 758.8727 25.502" style="fill:#fff;"/><path d="M334.8141,63.998c-2.2982,2.8328-5.2579,5.2638-8.8064,7.0994l-42.0824,33.9236,21.2212-5.7003c39.2527,0,65.4706-24.5515,65.4706-56.1102,0-1.0783-.0493-2.1563-.0981-3.1856,0-.2939-.0488-.6371-.0981-.98-.0275-.4941,5.8685-6.9267,11.0356-12.6461l-46.6423,37.5992Z" style="fill:#fff;"/><polygon points="156.5635 .527 153.3655 20.4927 178.1329 .527 156.5635 .527" style="fill:#fff;"/><path d="M187.7628,99.3052h64.7428l5.8248-24.1593h-33.7644l1.7801-11.2919-48.2071,38.861c3.1638-1.1812,6.844-2.6119,9.6238-3.4097Z" style="fill:#fff;"/><path d="M305.2491,72.6904c-.5057-.6429-.85-1.4238-.9879-2.2275-.3672-1.9521,.2299-4.0188,.5517-5.925,.3672-2.0209,.7115-4.0648,1.0333-6.1086,.6431-4.3174,1.2632-8.6578,1.9287-12.9752,.758-4.7537,1.4931-9.5305,2.2505-14.2842,.3448-2.1587,.6661-4.3173,1.0109-6.476h5.4884c16.9943,0,24.6872,10.2882,24.6872,21.7936,0,1.1124-.0774,2.218-.2125,3.3123l27.0196-21.781c-6.0462-16.49-22.4042-27.4839-47.2456-27.4839h-15.8797l-43.6411,35.1801c2.8723-.6676,8.6253-2.9174,13.2463-4.3153,.5778-.1748,1.1359-.3445,1.7454-.3445,.909,0,1.8077,.2755,2.556,.7926,.7321,.5059,1.3043,1.2294,1.6296,2.0576,.0951,.2422,.1692,.4925,.2215,.7474,.082,.3999,.0184,.7928-.0464,1.1939-.0373,.2307-.0745,.4614-.1118,.6921-.046,.2849-.092,.5697-.1381,.8547,0,0-9.806,61.8213-9.806,61.8213,0,0,.0919,.046,.0919,.1149h8.9163l30.1178-24.2783c-1.728-.1263-3.3646-.9807-4.4259-2.361Z" style="fill:#fff;"/><path d="M236.8594,40.93c-1.1766,.2206-2.1658,.5087-3.3247,.0776-.3932-.1463-.7652-.3487-1.1021-.5987-.6718-.4984-1.1991-1.1839-1.5068-1.9619-.2546-.6437-.3596-1.2661-.2491-1.9505,.063-.3899,.1295-.7795,.189-1.17,0,0,5.5349-34.7917,5.5349-34.7917h-28.6836l-12.5387,79.2287,.1149-.0893,50.5585-40.7563c-2.5555,.5956-5.9784,1.4469-8.9923,2.012Z" style="fill:#fff;"/><path d="M166.6101,19.028c-2.7596,2.2246-5.5192,4.4493-8.2788,6.6739-.1766,.1425-1.5188,1.227-3.3343,2.6877-.0056,.0043-.1261,.1018-.1312,.1055-.4233,.3406-7.0201,5.6578-20.5175,16.5382,.5394-.1976,1.0798-.3985,1.6276-.6117,2.2595-.8798,4.3872-1.8154,6.4291-2.8026,.0572-.0569,.191-.0911,.2643-.1276,.1044-.052,.2081-.1056,.3112-.1602,.387-.205,.7339-.3668,1.1699-.4471,.2529-.046,.5511-.069,.827-.069,2.2045,0,4.0188,1.5616,4.4091,3.7203,.046,.6661,0,1.332-.0919,2.0209-.1379,1.1024-.4132,2.2047-.5741,3.2381-.6425,4.0647-1.2862,8.1065-1.9287,12.1713-.873,5.5115-1.7454,11.0231-2.6183,16.5117-.758,4.8685-1.5385,9.7141-2.2965,14.5826-.3442,2.0899-.6661,4.1796-.9873,6.2695h28.7061S184.6136,4.515,184.6119,4.5163c-5.4614,4.8812-11.4869,9.7511-18.0018,14.5117Z" style="fill:#fff;"/><path d="M71.5358,97.4465c.5225-.125,1.0453-.2489,1.5702-.3632,.2415-.0526,.4835-.1031,.7263-.1501,.6932-.1341,1.3759-.0069,2.0092,.293,.6036,.2858,1.1398,.7089,1.558,1.2295,.2813,.3501,.4588,.7294,.6579,1.1265,.023,.0458,.046,.0918,.069,.1608,.023,.0918,.046,.1608,.046,.1608l.2758,.7807h1.5155s15.9616-24.6774,15.9616-24.6774c-8.2973,6.6887-17.5197,14.1232-27.7075,22.3361,1.1241-.3183,2.2567-.6299,3.318-.8966Z" style="fill:#fff;"/><path d="M54.4266,11.6498c-.2983,.1149-.5741,.2297-.8494,.3675-.3442,.1608-.6891,.3215-1.0103,.4823-.3908,.1836-.781,.3674-1.1712,.5511-.4138,.2066-.827,.4363-1.2402,.6429-.4592,.2067-.8959,.4363-1.3551,.6661-.4592,.2296-.9184,.4592-1.3776,.6889-.4822,.2296-.9419,.4593-1.4011,.6889-.4822,.2067-.9414,.4363-1.4005,.6659-.1848,.0462-.3757,.1712-.5471,.2531-.2143,.1024-.4274,.2073-.6411,.3112-.4192,.2038-.8406,.4044-1.2747,.5751-.5069,.1993-1.0102,.3074-1.556,.3074-.1149,0-.2299,0-.3448-.023-1.9747-.1378-3.5827-1.5616-4.0188-3.4217-.023-.0458-.046-.1148-.046-.1608-1.4925-5.3507-3.1919-11.3446-3.812-13.7099H0L14.3093,44.2719,55.3573,11.1818c-.4519,.2299-.8472,.431-.9307,.468Z" style="fill:#fff;"/><path d="M124.7682,31.2618c.1379-.3445,.3448-.6431,.5741-.8957L144.6096,.5349h-32.4031c-4.1108,7.2338-24.1591,43.748-25.2383,43.748-2.0868-10.0213-7.9059-25.4923-12.5185-39.2794-3.9533,3.1865-7.9059,6.3735-11.8592,9.56l-7.865,12.1741-5.6263,8.7726c-1.516,2.2047-4.9608,8.7726-5.4889,8.7726-.6448-3.7186-1.6377-7.7934-2.759-12.196-5.3583,4.3189-15.6246,12.5946-31.3429,25.2657,.0454-.0034,.0908-.0067,.1368-.01,1.169-.0837,2.3391-.1587,3.5109-.1901,.1082-.0029,.2164-.0062,.3252-.0095,1.0832-.0327,2.1984-.0795,3.2541,.2135,2.3256,.6453,2.6576,2.5617,3.3214,4.5397,.0695,.2072,.139,.4143,.2091,.6215,.1665,.4967,.3325,.9938,.4945,1.4921,.5971,1.8372,1.2172,3.6743,1.8143,5.5345,.712,2.2047,1.4471,4.3864,2.1586,6.5909,.758,2.3195,1.516,4.6619,2.2965,6.9814,.712,2.2045,1.4471,4.4322,2.1591,6.6367,.6201,1.8601,1.2396,3.7433,1.8367,5.6034,.4362,1.309,.85,2.595,1.2862,3.8811,.1379,.4823,.2983,.9645,.4592,1.4468h1.516l23.3321-35.1362,5.7412-8.7726,3.0315,8.7726,6.7398,19.6229,35.1094-28.3027,16.5273-25.6067Z" style="fill:#fff;"/></g></g></g></svg>