<?xml version="1.0" encoding="UTF-8"?><svg id="Vrstva_2" xmlns="http://www.w3.org/2000/svg" viewBox="0 0 762.7077 442.9822"><g id="Components"><g id="_88d264d0-3e92-439c-91e9-b86be39bf26c_4"><g><path d="M318.6942,162.8237c.5018,.0319,8.2957,.4105,12.0283-5.0389,1.5603-2.278,2.6327-5.8982,1.3004-7.1522-1.704-1.6038-5.3433,2.5429-9.4277,1.1378-3.7945-1.3055-3.161-5.7463-8.1273-8.4524-.7942-.4326-4.2296-2.3044-6.6647-.9753-3.2518,1.7752-3.4765,8.5802-1.1378,13.1664,3.3837,6.6347,11.4451,7.2775,12.0287,7.3146Z"/><path d="M313.1191,125.8396c1.3682-2.419-2.8874-8.3029-5.6911-7.7237-2.1093,.4357-4.3542,4.7274-2.4391,7.5204,1.9956,2.9101,7.0641,2.0879,8.1302,.2033Z"/><path d="M301.3303,98.6038c-5.9819,3.818-3.0043,17.4419,.2035,18.0895,3.5136,.7095,11.4758-13.3095,7.9267-17.6829-1.6417-2.0231-5.7177-1.9461-8.1302-.4066Z"/><path d="M302.3467,93.1159c-.3661-1.5549-2.8364-2.5199-4.6749-2.2356-4.3768,.6767-6.0358,8.5686-4.4712,9.756,1.7793,1.3506,9.898-4.328,9.1462-7.5204Z"/><path d="M290.9647,99.8234c.1999-2.3571-1.0963-5.1182-2.0328-5.0813-.561,.0222-.9279,1.0464-1.2192,1.8291-2.8146,7.555-5.0104,9.7606-4.2684,10.366,1.0726,.8754,7.1319-2.5375,7.5204-7.1138Z"/><path d="M283.8507,125.0265c1.6463,2.1574,7.461,2.2247,10.1628-1.2194,3.393-4.3254-.451-11.223-3.2522-11.5853-3.6271-.4691-9.422,9.5135-6.9106,12.8047Z"/><path d="M278.9729,99.4169c-1.6002-.6379-2.8813,2.4022-6.5042,2.4389-2.4473,.025-3.4616-1.3462-4.878-.6096-1.3736,.7143-2.0495,2.8507-1.626,4.4714,.7701,2.9464,5.0613,3.7551,6.7073,4.0651,2.0265,.3818,4.5086,.8494,6.3009-.6098,3.0535-2.4861,2.0888-8.9232,0-9.756Z"/><path d="M322.1369,119.3419c1.9986-1.9732,1.9411-5.5262,.1919-7.2907-.8609-.8683-1.9077-1.0776-2.3025-1.1511-2.1519-.4005-5.2669,.5647-6.1394,3.2616-.9427,2.9143,1.3254,6.0165,4.029,6.5231,2.3562,.4414,4.1356-1.2587,4.221-1.343Z"/><path d="M331.7299,95.1676c-.7709-2.1299-3.2688-2.8291-3.4534-2.878-5.2915-1.3982-12.7292,5.6133-11.5119,10.3606,.51,1.9881,2.5094,3.4683,4.4129,3.8371,5.5512,1.0757,12.1372-6.941,10.5523-11.3197Z"/><path d="M331.7299,105.7199c-2.4179,3.2539-1.9648,7.2019-.9593,14.965,.6509,5.0276,2.0527,12.5599,2.878,12.471,.8045-.0866,1.2973-7.4428,.7674-14.3896-.4915-6.4446-1.7452-10.9912,.5756-12.6627,1.5018-1.0816,3.4695-.2165,4.7964-1.9186,.8567-1.0988,1.1177-2.8461,.498-3.3344-.4256-.3354-1.202-.0264-1.841,.2647-2.4028,1.095-4.98,2.2696-6.715,4.6047Z"/><path d="M354.0961,188.0239c-2.6717-2.9145-7.8147-4.3729-10.3335-5.0871-3.7827-1.0726-6.2957-1.0588-7.6532-3.1922-.7357-1.1559-.7479-2.4091-.7726-4.9156-.0474-4.8197,1.2243-6.2558,.318-7.4719-1.1941-1.6017-4.2292-.2222-9.3797,0-1.4945,.0644-7.5707,.2215-13.831-2.3848-2.1567-.8979-7.4149-3.0871-11.1284-8.2668-3.2008-4.4645-1.9906-6.5992-5.5642-11.1284-.4861-.6161-5.7389-7.1617-9.0618-5.882-3.6271,1.3969-2.4794,11.1668-2.3844,11.9232,.3638,2.9025,.9451,7.5357,4.4511,10.3333,2.6969,2.1519,4.4561,1.0888,9.2206,2.8616,5.7127,2.1257,5.6561,4.574,10.3337,6.8361,8.5351,4.1276,16.9552-.0436,17.8052,2.2258,.8823,2.3556-8.0589,7.1992-7.2305,8.9314,.8563,1.79,11.0405-2.0542,12.1588,.1303,.7884,1.5402-3.8113,4.3556-3.0684,6.2808,1.0269,2.6619,10.2809-1.5264,17.3764,2.6218,6.9414,4.0584,6.8352,13.1835,8.9026,12.8771,2.2398-.3319,4.7016-11.39-.159-16.6926Z"/><path d="M340.5085,177.9488c-.0122,.5343,6.6657-.515,11.5339,2.4939,6.1797,3.8192,5.7022,11.8653,8.2607,11.8456,2.3-.0176,5.4945-6.5422,3.8967-11.6897-1.76-5.6699-9.3215-9.6285-18.7037-8.7283,.0696,1.4288-.0705,3.4368-1.4026,4.6758-1.451,1.3495-3.578,1.1003-3.5849,1.4028Z"/><path d="M322.7553,132.4789c-9.6427-2.6287-21.0436,.2373-21.3406,.2587,0,.0002-13.4318,3.2371-13.2761,4.2193,.1236,.7804,8.6429-1.0048,20.7298-.1559,9.4818,.666,15.3342,1.0772,20.5739,4.8316,9.8653,7.0691,10.0105,20.5817,11.5339,20.2624,1.287-.2698,2.3634-10.1607-2.8056-18.392-4.9034-7.8082-13.081-10.3876-15.4152-11.0241Z"/><path d="M378.6407,191.4769c-1.0296-.7686-2.7917-1.2427-3.9409-.5912-5.1574,2.9239,2.4196,28.293,4.7291,27.9808,.8385-.1134-.1521-3.4583,.7881-17.3402,.3077-4.5432,.696-8.3528-1.5763-10.0495Z"/><path d="M354.5364,226.9188c1.3344-.952-8.0373-18.2765-9.5838-17.6344-.9941,.4126,.283,8.645,5.7501,14.5675,.4879,.5284,3.2293,3.4981,3.8337,3.0669Z"/><path d="M345.7192,197.7839c-.0229-1.2528-.0514-2.818-.7665-3.067-.7149-.249-2.0049,.8551-2.3002,2.1085-.4777,2.026,1.6826,4.2778,2.4918,4.0252,.6275-.1957,.5956-1.9455,.575-3.0668Z"/><path d="M404.8728,222.1815c.1124-.2295-2.107-2.6043-5.0666-3.0629-5.4211-.8403-7.7765,5.6094-16.1585,6.5042-1.7149,.183-3.0835,.0696-3.7943-.013-7.037-.8178-8.404-5.4546-14.0143-6.0108-4.6051-.4567-8.8581,2.1541-8.7774,2.5168,.0331,.1482,.8003-.0359,2.8052-.0181,3.8448,.0341,5.7389,.753,6.2017,.937,.5563,.2212,1.0053,.4493,1.7227,.8557,5.2751,2.9872,5.6317,4.6005,9.0274,5.9088,.0002,0,3.1809,1.2254,6.3381,.865,.433-.0494,.8475-.1338,.8477-.1338s.7219-.147,1.4225-.4041c3.2526-1.1943,10.4147-7.5085,10.4147-7.5086,.2746-.2421,.7355-.6492,1.4588-.966,.5228-.2292,1.6203-.6026,4.0154-.2677,2.2522,.3149,3.4809,.9525,3.5568,.7977Z"/><path d="M401.4643,234.4292c1.4135-.4432,2.5608-1.9597,2.4731-3.2975-.129-1.9691-2.9216-3.3759-5.143-3.3894-.0248-.0002-.0514,.0001-.1051,.0005,0,0-1.8324,.0135-3.5893,.3612-2.2006,.4356-5.7272,4.9575-9.1728,6.7489-4.304,2.2377-9.3247,.6528-10.4573,.2557-5.3517-1.8764-7.5034-6.1739-12.3938-7.9432-1.3783-.4986-3.8211-1.1679-4.9514,.169-.0606,.0716-.0988,.1242-.158,.2116-.9975,1.4739-1.6868,4.4378-.6898,5.3993,1.172,1.1302,3.4718-1.5709,6.4302-1.1542,5.5652,.7841,5.4478,11.5969,12.7439,14.3466,.3046,.1147,3.5801,1.2977,6.9756,.0486,7.1677-2.6371,7.8399-13.6744,12.4317-13.5707,2.1895,.0494,3.3928,2.5075,5.6059,1.8136Z"/><path d="M320.6678,208.2781c.9501-.1247,2.2-.7187,2.5929-1.9447,.5031-1.5688-.6608-3.3502-1.9447-3.6732-1.9723-.4961-4.4897,2.3839-3.8893,4.1054,.3694,1.059,1.9209,1.6858,3.2411,1.5125Z"/><path d="M335.7396,283.902c4.3038-1.7385,8.3836-6.321,8.6836-11.3263,.0183-.3049,.1563-5.0607-3.0204-8.1172-3.0099-2.8962-8.773-4.048-9.5781-4.209-1.2381-.2474-1.999-.2999-2.0504-.6308-.146-.9377,5.4123-4.0472,8.9897-2.3658,3.7867,1.7797,2.8192,7.7353,6.4664,8.832,1.5759,.474,3.6506-.0687,4.2896-1.2489,1.3002-2.4009-3.7773-6.6331-2.6428-8.1172,.7678-1.0045,3.7588,.065,4.1885,.2187,3.7282,1.333,5.0595,4.2259,6.1512,3.7852,1.2471-.5038-.1802-4.4076,1.1039-5.2046,1.9241-1.1945,10.4017,4.2997,10.567,11.0401,.1773,7.2357-9.3157,12.1846-11.3556,13.2481-2.158,1.1249-4.3309,1.7746-4.7316,1.8925-4.7228,1.39-8.1885,1.0032-8.1885,1.0707,0,.0492,11.0952,1.5844,20.9536-2.2653,3.0789-1.2022,12.9593-5.0605,13.5597-11.3448,.5244-5.4894-6.4016-8.9596-21.0006-25.0489-.8903-.9811-2.192-2.406-3.7534-4.352-3.0638-3.8185-5.4841-7.5784-8.9949-13.0319-7.5053-11.6594-7.7232-15.0349-7.3012-17.4998,.6012-3.5113,2.6252-5.8998,1.275-8.692-1.325-2.7395-5.2757-3.6963-5.7947-3.8243-1.7019-.4196-3.0995-.2895-3.8878-.2092-2.4796,.2526-4.9988,1.2434-4.9202,1.7156,.1324,.7921,7.3656-1.1169,9.2932,1.8702,.2005,.3111,.3734,.721,.3776,3.9642,.0038,3.1758-.1582,5.5394-.1888,6.0407-.1265,2.0699-.4279,7.0025,1.8876,10.9488,2.1395,3.6463,4.7798,3.4961,6.2296,7.5509,.2597,.7267,1.2343,3.4525,.1888,4.3418-1.3086,1.1129-4.1129-2.07-9.8164-3.2092-4.5094-.9008-5.0777,.6254-8.306-.3775-4.8511-1.5072-4.754-5.3224-9.4384-8.306-5.9397-3.7831-14.7962-3.1904-16.2344-.1888-1.2113,2.5274,2.8358,6.7649,3.5864,7.5509,5.5453,5.8062,11.9948,5.8399,19.2548,7.9285,15.8207,4.5511,26.6361,16.312,25.862,17.7446-.2047,.3791-3.3879-.5289-9.8162-2.0765-2.3204-.5586-4.9363-1.2371-8.4948-2.2653-11.9985-3.4669-18.1298-4.97-23.0302-7.9284-5.0582-3.0537-8.5607-6.2976-9.8162-5.2857-1.4496,1.1684,.9415,7.3294,4.5306,11.7039,3.3766,4.1157,7.3515,6.0866,10.3824,7.5509,3.9115,1.8897,8.8141,4.2581,15.4794,5.0969,1.2194,.1535,6.8034,.7976,7.9284,3.0203,.554,1.0944,.3776,2.0763,.3776,2.0765-.0401,.2234-.1831,.8593-.9438,1.699-1.0128,1.1178-2.2581,1.6449-3.0204,1.8877-4.9298,1.57-9.816,.1888-9.8162,.1888-10.597-2.9953-20.9089-18.668-22.4638-17.7446-1.0938,.6494,1.3938,9.9532,8.4946,18.3109,5.5682,6.5537,18.3601,17.6897,28.5046,13.5916Z"/><path d="M316.3581,216.105c7.9655,2.825,11.7283,8.508,12.2528,8.0115,.587-.5554-3.2298-8.5087-10.8389-11.3104-7.9366-2.9223-16.3682,1.0968-16.2587,1.8851,.0965,.6924,6.7333-1.463,14.8448,1.4138Z"/><path d="M349.1732,271.9203c.9811,.3093,2.2033,.0622,2.9967-.7886,.6772-.7267,1.1328-1.9913,.6306-2.8388-.7265-1.2267-3.2405-1.2114-4.4159,0-.5408,.5572-1.0405,1.6174-.631,2.5234,.3463,.7656,1.162,1.0228,1.4196,1.104Z"/><path d="M360.371,272.3935c.5205-.6887,.4263-1.699,0-2.3657-.7107-1.1112-2.5232-1.5463-3.4698-.6309-.7714,.7458-.7359,2.164,0,2.9966,.9037,1.0225,2.7171,.9957,3.4698,0Z"/><path d="M355.5289,262.7327c-.7716-.3988-2.0634-.1918-2.3781,.6136-.2564,.6565,.2454,1.4313,.7537,1.8074,.6862,.5075,1.8664,.6454,2.3657,0,.4166-.5383,.1873-1.3991-.1578-1.8926-.0743-.1063-.2547-.3584-.5836-.5283Z"/><path d="M352.6386,287.1577c-1.0923-1.6734-6.5405,.5004-8.6889-1.6616-.2184-.2198-1.1013-1.1876-2.2083-1.2273-.5102-.0184-1.0069,.1536-1.0072,.1537-.5087,.1762-.8549,.4614-1.0437,.6432-.0004,.0001-.7051,.7228-.7917,2.092-.1722,2.7212,4.766,26.4337,7.9498,25.5857,2.18-.5807-2.5239-11.336,3.6055-20.4317,1.0348-1.5359,2.9661-3.9566,2.1844-5.1541Z"/><path d="M298.609,212.8478c1.2083-2.1366-2.5505-7.3338-5.0269-6.8221-1.8631,.3848-3.8459,4.1756-2.1542,6.6426,1.7626,2.5704,6.2395,1.8443,7.1812,.1796Z"/><path d="M288.3758,204.769c3.1037,.6266,10.1363-11.7559,7.0016-15.619-1.4502-1.7869-5.0504-1.7189-7.1812-.3591-5.2837,3.3724-2.6537,15.4062,.1796,15.9782Z"/><path d="M284.9648,181.9688c-3.8662,.5979-5.3315,7.5686-3.9495,8.6173,1.5717,1.193,8.7428-3.8226,8.0786-6.6425-.3235-1.3734-2.5052-2.2258-4.1291-1.9749Z"/><path d="M299.2871,202.5331c-.8328,2.5741,1.1708,5.3142,3.5587,5.7617,2.0812,.3899,3.6529-1.1117,3.7282-1.1862,1.7655-1.743,1.7147-4.8814,.1695-6.4396-.7602-.767-1.6849-.952-2.0336-1.017-1.9008-.3537-4.6521,.4989-5.4228,2.8811Z"/><path d="M305.7269,195.7543c4.9034,.9503,10.7206-6.1308,9.3205-9.9985-.6809-1.8813-2.887-2.4989-3.0504-2.5421-4.6737-1.2348-11.2431,4.9583-10.1678,9.1514,.4502,1.7561,2.2161,3.0636,3.8977,3.3892Z"/><path d="M269.327,192.4377c1.2085-2.1366-2.5503-7.3337-5.0267-6.822-1.8631,.3847-3.8459,4.1754-2.1542,6.6425,1.7626,2.5704,6.2395,1.8444,7.181,.1796Z"/><path d="M259.094,184.3589c3.1037,.6266,10.1363-11.7558,7.0014-15.6189-1.45-1.7871-5.0502-1.7191-7.181-.3591-5.2837,3.3722-2.6537,15.406,.1796,15.9781Z"/><path d="M254.0288,163.906c-.2612-1.1089-2.0227-1.7972-3.3339-1.5943-3.1215,.4825-4.3046,6.1107-3.189,6.9575,1.2691,.9631,7.0591-3.0867,6.5229-5.3632Z"/><path d="M273.6751,185.9383c1.6803,.3147,2.9495-.8976,3.0103-.9579,1.4252-1.4072,1.3843-3.9409,.1368-5.1992-.614-.6193-1.3604-.7686-1.6419-.8211-1.5347-.2855-3.7561,.4028-4.3783,2.326-.6726,2.0785,.9453,4.2908,2.8731,4.6521Z"/><path d="M272.5473,171.9548c.4502,1.7563,2.2161,3.0636,3.8977,3.3892,4.9034,.9503,10.7206-6.1306,9.3205-9.9983-.6809-1.8813-2.887-2.4989-3.0504-2.5421-4.6737-1.235-11.2431,4.9581-10.1678,9.1512Z"/><path d="M271.7896,203.7637c1.5379-.3176,3.1748-3.4467,1.7783-5.4832-1.455-2.1217-5.1505-1.5222-5.9277-.1481-.9975,1.7636,2.1053,6.0535,4.1494,5.6313Z"/><path d="M276.2352,217.9899c4.3615-2.7837,2.1905-12.7169-.1481-13.189-2.5618-.5173-8.367,9.7039-5.7794,12.8926,1.197,1.4751,4.1687,1.4189,5.9275,.2964Z"/><path d="M275.4943,221.9912c.267,1.1336,2.068,1.8372,3.4085,1.63,3.1912-.4935,4.4008-6.2474,3.2602-7.1131-1.2975-.9847-7.2166,3.1555-6.6687,5.4831Z"/><path d="M261.0653,202.8698c-1.4571,1.4386-1.4152,4.0291-.1397,5.3156,.6277,.633,1.3908,.7857,1.6787,.8392,1.5691,.292,3.8402-.4117,4.4763-2.3781,.6872-2.1248-.9665-4.3866-2.9378-4.756-1.7177-.3218-3.0149,.9178-3.0775,.9793Z"/><path d="M254.0712,220.4952c.562,1.5529,2.3831,2.0628,2.5178,2.0983,3.8578,1.0194,9.2808-4.0926,8.3933-7.5538-.3717-1.4496-1.8295-2.5288-3.2176-2.7976-4.0475-.7844-8.8491,5.0606-7.6934,8.2531Z"/><path d="M243.9976,127.5951c-.9976,1.7636,2.1051,6.0536,4.1493,5.6313,1.538-.3176,3.1747-3.4467,1.7783-5.483-1.4549-2.1217-5.1504-1.5224-5.9276-.1483Z"/><path d="M252.4446,134.2638c-2.5619-.5173-8.367,9.704-5.7795,12.8926,1.197,1.4752,4.1688,1.4189,5.9276,.2964,4.3615-2.7836,2.1905-12.717-.1481-13.189Z"/><path d="M261.6598,151.4942c3.1912-.4934,4.4008-6.2476,3.2602-7.1132-1.2975-.9847-7.2168,3.1555-6.6687,5.4832,.267,1.1336,2.068,1.8372,3.4085,1.63Z"/><path d="M243.4378,136.1094c.6874-2.1246-.9665-4.3865-2.9375-4.7561-1.7179-.3218-3.0153,.9178-3.0776,.9793-1.4571,1.4387-1.4153,4.0292-.1398,5.3158,.6277,.6329,1.3908,.7856,1.6787,.8391,1.569,.292,3.8401-.4116,4.4763-2.3781Z"/><path d="M230.4284,149.9582c.5621,1.5528,2.3832,2.0626,2.518,2.0982,3.8579,1.0195,9.2807-4.0926,8.3931-7.5537-.3717-1.4496-1.8294-2.5289-3.2173-2.7976-4.0475-.7846-8.8493,5.0605-7.6938,8.2531Z"/><path d="M242.1109,183.2514c1.5379-.3176,3.1746-3.4467,1.7783-5.4832-1.455-2.1217-5.1505-1.5222-5.9277-.1481-.9975,1.7636,2.1052,6.0536,4.1494,5.6313Z"/><path d="M250.6189,179.3468c-2.5618-.5173-8.367,9.704-5.7794,12.8926,1.197,1.475,4.1688,1.4189,5.9276,.2964,4.3614-2.7838,2.1906-12.7168-.1482-13.189Z"/><path d="M248.6868,199.6448c-1.2974-.9847-7.2167,3.1555-6.6686,5.4831,.2669,1.1336,2.0679,1.8372,3.4084,1.63,3.1913-.4934,4.4008-6.2475,3.2602-7.1131Z"/><path d="M237.4017,186.1342c.6873-2.1246-.9665-4.3865-2.9376-4.7557-1.7179-.3218-3.0152,.9176-3.0775,.979-1.4572,1.4387-1.4154,4.0292-.1399,5.3156,.6278,.6331,1.3909,.7858,1.6787,.8393,1.5691,.2918,3.8401-.4118,4.4764-2.3783Z"/><path d="M226.9102,202.0814c3.8579,1.0193,9.2807-4.0926,8.3932-7.5539-.3717-1.4496-1.8294-2.5287-3.2174-2.7976-4.0475-.7842-8.8492,5.0607-7.6937,8.2531,.5621,1.553,2.3832,2.0628,2.5179,2.0984Z"/><path d="M237.1109,163.7231c-1.9027-.6969-5.6295,3.0636-4.8797,5.0116,.5641,1.4655,3.9182,2.5704,5.6996,.8607,1.8562-1.7812,.6625-5.3297-.8199-5.8724Z"/><path d="M218.246,169.5432c-1.2602,1.4215-.7205,4.3443,.6737,5.8965,3.4574,3.8495,12.9038,.0885,12.9885-2.2958,.0928-2.612-10.9379-6.6735-13.6622-3.6007Z"/><path d="M221.348,181.0466c.76-1.4406-4.2897-6.606-6.4968-5.6859-1.075,.4483-1.4756,2.3399-1.0527,3.6288,1.007,3.0682,6.8812,3.3235,7.5494,2.0571Z"/><path d="M226.0978,158.7366c-.5224,.7225-.5486,1.5003-.5544,1.793-.0323,1.5958,1.0322,3.7217,3.0759,4.0288,2.2085,.3319,4.1704-1.6686,4.2136-3.6734,.0374-1.7473-1.3969-2.8253-1.4677-2.8767-1.6569-1.2033-4.206-.7397-5.2674,.7284Z"/><path d="M219.9963,163.8563c1.3695-.6031,2.1967-2.2172,2.2357-3.6302,.1141-4.1213-6.4354-7.9062-9.3969-6.2456-1.4405,.8077-1.6467,2.6873-1.6598,2.8261-.377,3.9724,5.5506,8.4896,8.8209,7.0496Z"/><path d="M318.0699,79.1904c-1.9027-.6969-5.6294,3.0636-4.8795,5.0116,.5639,1.4657,3.9178,2.5706,5.6995,.8609,1.8563-1.7814,.6625-5.3297-.82-5.8726Z"/><path d="M312.3242,73.4756c-1.657-1.2033-4.2061-.7397-5.2674,.7284-.5224,.7225-.5486,1.5003-.5544,1.7932-.0323,1.5956,1.0321,3.7215,3.076,4.0286,2.2083,.3319,4.1704-1.6684,4.2134-3.6732,.0376-1.7475-1.3969-2.8253-1.4676-2.8769Z"/><path d="M293.7942,69.4478c-1.4403,.8077-1.6466,2.6875-1.6598,2.8261-.3768,3.9726,5.5508,8.4898,8.821,7.0498,1.3694-.6031,2.1966-2.2174,2.2356-3.6304,.1141-4.1213-6.4352-7.9062-9.3969-6.2456Z"/><path d="M282.4229,304.3067c9.8747-2.0361,17.0257-3.5106,20.6576-9.3292,1.8299-2.9318,2.7395-6.9232,1.6659-7.6632-.8639-.5954-2.7032,1.1262-4.9978,2.6655-9.083,6.093-15.3347,2.6473-22.9897,8.9961-.4567,.3787-4.8039,4.031-3.9984,5.6641,.7279,1.4758,5.3005,.5662,9.6624-.3332Z"/><path d="M270.095,298.6426c1.4777-.8264,13.0369-7.2906,11.9948-9.9956-.9939-2.5796-13.7259-2.4619-20.6576,4.6647-2.9476,3.0305-5.325,7.8205-3.9982,9.3292,1.8167,2.066,10.0996-2.5659,12.661-3.9983Z"/><path d="M244.0487,11.7731c2.9681,.5843,7.5592,2.6161,16.4342,18.9339,12.236,22.4979,17.8134,44.9373,16.2373,45.5296-.6168,.2318-2.6899-3.0976-6.8361-9.7564-1.1509-1.8483-1.9696-3.2519-2.246-3.7444-3.1516-5.6133-4.5648-9.9293-14.607-28.089-2.8217-5.1027-5.5185-9.8196-10.403-10.8192-4.1595-.8513-7.8286,1.4188-8.5305,1.8725-4.8994,3.1681-6.0655,8.9221-6.4499,10.8192,0,.0002-.0774,.3942-.1366,.7872-.6702,4.451,.3064,20.5166,15.1906,35.9445,7.1642,7.4258,12.5261,9.4963,11.7989,13.3573-.5081,2.6976-3.4219,3.2597-9.9536,10.598-2.0275,2.2779-3.0413,3.4168-4.0518,4.9722-4.6153,7.1038-5.8907,17.1929-3.0285,18.7765,2.7829,1.5397,7.1116-6.27,12.1363-4.9608,5.8576,1.5261,5.3617,13.5429,8.9048,13.8025,3.7889,.2777,10.0749-13.0459,6.0108-18.2549-2.7362-3.5071-9.365-2.3114-10.6982-6.3347-.4316-1.3025-.0952-2.5091,.1549-3.4061,.947-3.3966,4.1559-5.8434,7.1635-6.5966,4.7558-1.191,6.1808,2.6415,11.7467,2.1267,3.2425-.2999,5.2824-2.2527,10.0933-4.9878,5.2189-2.9671,8.7374-5.5029,9.0244-9.0241,.2936-3.609-3.0561-5.1965-3.5624-10.924-.1358-1.5377-.5621-6.3576,2.1373-8.5492,2.567-2.0842,5.7595-.0044,12.3488,0,.0002,0,5.7313,.0038,11.6361-2.1372,14.586-5.2886,19.3309-22.7409,19.7111-24.2228,1.2619-4.9223,2.6535-10.3505-.4751-14.7236-4.0738-5.6936-12.5586-5.0536-13.2988-4.9869-5.7227,.5158-9.3031,3.8087-12.5864,6.8868-2.2078,2.0701-4.0433,3.8387-3.8623,6.0041,.3117,3.7343,6.3458,5.3559,6.0981,6.0972-.4455,1.3331-21.9281,1.9843-36.9472-11.5083-11.1339-10.0023-11.3289-21.1411-22.86-24.4571-5.7818-1.6627-10.8591-.3365-13.1347,.4533-12.1992,4.2342-18.0605,18.5701-16.0949,20.3698,2.1151,1.9365,11.7966-12.0416,22.9357-9.8486Z"/><path d="M252.0313,306.4046c.5295-.7026,.2608-1.5647,.2471-1.6066-.3226-.9787-1.4999-1.5394-2.3654-1.2522-.4259,.1414-.6654,.4513-.7539,.5691-.4826,.6421-.6734,1.8234,.0708,2.5502,.8043,.7852,2.1939,.5455,2.8014-.2605Z"/><path d="M260.9946,243.904c1.4777-.8264,13.0372-7.2906,11.9946-9.9956-.9939-2.5796-13.7259-2.4619-20.6574,4.6647-2.9476,3.0305-5.325,7.8205-3.9983,9.3292,1.8169,2.066,10.0999-2.5659,12.6611-3.9983Z"/><path d="M267.9913,267.5603c3.4876-3.8347,5.5413-9.9505,3.6653-11.6615-1.411-1.2868-4.7062,.2265-5.6643,.6664-7.5728,3.4776-11.9096,13.7723-9.6624,15.9929,1.7632,1.7423,8.0471-1.0235,11.6614-4.9978Z"/><path d="M247.0494,270.9734c4.199-1.8498,4.7965-7.2266,4.8783-8.1304,.1194-1.3214,.4003-4.4279-1.1617-5.3428-2.112-1.2373-6.939,1.9163-8.8272,6.0397-.8824,1.9269-1.9261,5.8195,0,7.4335,1.7256,1.446,4.754,.157,5.1105,0Z"/><path d="M232.8255,260.0075c-.2008,.7644,.8438,2.2023,2.0743,2.0283,1.2821-.1814,1.8385-1.9815,1.3928-2.6393-.572-.8443-3.2002-.4051-3.4671,.6111Z"/><path d="M242.9309,251.666c.5294-.7026,.2608-1.5647,.247-1.6066-.3226-.9787-1.5-1.5394-2.3654-1.2522-.4257,.1414-.6653,.4513-.7538,.5691-.4827,.6421-.6734,1.8234,.0708,2.5502,.8042,.7852,2.194,.5455,2.8014-.2605Z"/><path d="M248.6493,282.5399c-1.2027-1.5019-6.4355,1.0366-7.118,7.0568-.2901,2.5599,.1954,6.1652,1.2073,6.8995,1.3857,1.0056,3.3926-3.6375,4.0132-5.0733,.358-.8284,3.1588-7.3081,1.8976-8.883Z"/><path d="M280.2231,250.3847c5.0628-1.1109,10.2756-4.9119,9.735-7.3928-.4066-1.8658-3.9701-2.5375-5.006-2.7327-8.1887-1.5435-17.6813,4.3458-17.1327,7.457,.4305,2.4411,7.1564,3.8198,12.4036,2.6685Z"/><path d="M284.7812,283.5086c4.1992-1.8498,4.7964-7.2266,4.8782-8.1304,.1196-1.3214,.4003-4.4278-1.1615-5.3428-2.1118-1.2373-6.9391,1.9163-8.8273,6.0398-.8823,1.9269-1.926,5.8194,0,7.4334,1.7256,1.446,4.754,.1571,5.1106,0Z"/><path d="M270.5574,272.5427c-.201,.7644,.8437,2.2024,2.0743,2.0284,1.2822-.1814,1.8385-1.9816,1.3929-2.6393-.5723-.8444-3.2004-.4051-3.4672,.611Z"/><path d="M280.6628,264.2012c.5293-.7024,.2605-1.5646,.2469-1.6065-.3229-.9788-1.5001-1.5395-2.3653-1.2522-.4259,.1414-.6654,.4513-.7539,.569-.4827,.6421-.6734,1.8235,.0709,2.5502,.8041,.7852,2.1939,.5455,2.8014-.2605Z"/><path d="M233.3906,242.5648c-2.3975-2.994-12.8291,2.0665-14.1894,14.0673-.5785,5.1032,.3894,12.2901,2.4066,13.754,2.7623,2.0045,6.7629-7.2512,8-10.1135,.7137-1.6514,6.2968-14.5683,3.7827-17.7078Z"/><path d="M200.9841,220.3567c.0129,7.3525,2.2073,17.9583,4.8763,20.3749,3.6549,3.3094,7.2349-9.61,8.3418-13.6051,.6387-2.305,5.6347-20.3346,2.1229-25.2624-3.3489-4.6993-15.3714,1.2025-15.341,18.4926Z"/><path d="M244.5419,216.5766c1.1818-1.0342,1.0642-4.5635-1.1542-5.6476-2.3116-1.1293-5.2319,1.2132-5.2312,2.7917,.0009,2.0263,4.8146,4.2305,6.3854,2.8558Z"/><path d="M241.8646,221.4056c-.4487-2.1877-3.0024-3.3409-4.8996-2.6912-1.6535,.5664-2.1716,2.2843-2.1956,2.3684-.5592,1.9699,.7537,4.2036,2.4975,4.6945,.8581,.2416,1.5974-.0016,1.8742-.0968,1.5093-.5191,3.1387-2.2505,2.7235-4.275Z"/><path d="M277.2411,149.791c1.1817-1.0342,1.0642-4.5635-1.1544-5.6475-2.3113-1.1295-5.2319,1.2129-5.2311,2.7917,.0008,2.026,4.8149,4.2304,6.3855,2.8557Z"/><path d="M267.4686,154.2973c-.5591,1.9698,.7539,4.2036,2.4976,4.6944,.858,.2417,1.5973-.0017,1.8742-.0967,1.5092-.5192,3.1387-2.2505,2.7234-4.2751-.4487-2.1876-3.0024-3.3409-4.8996-2.691-1.6535,.5664-2.1716,2.2843-2.1956,2.3684Z"/><path d="M302.9976,278.0717c.5295-.7024,.2608-1.5646,.2469-1.6065-.3226-.9788-1.4999-1.5395-2.3653-1.2522-.4259,.1414-.6654,.4513-.7539,.569-.4825,.6421-.6734,1.8235,.0709,2.5502,.8043,.7852,2.1939,.5455,2.8014-.2605Z"/><path d="M318.527,289.5347c1.2106-1.3824,.1848-3.3892,.133-3.4868-1.2129-2.2842-4.6225-3.9275-6.8925-3.5812-1.1171,.1703-1.6675,.7783-1.8698,1.0101-1.1034,1.264-1.2264,3.8249,1.0546,5.6911,2.4649,2.0166,6.1853,1.9532,7.5747,.3669Z"/><path d="M296.8928,256.879c-.1391-1.4655-2.222-1.6897-2.3246-1.6993-2.4016-.2243-5.844,1.3489-7.1386,3.0606-.6369,.8423-.588,1.4991-.5643,1.7444,.1296,1.3374,1.8198,2.6026,4.654,1.904,3.0624-.7551,5.5327-3.328,5.3735-5.0096Z"/><path d="M444.0134,162.8237c.5836-.0371,8.645-.6799,12.0285-7.3146,2.3388-4.5862,2.1142-11.3912-1.1376-13.1664-2.4351-1.3292-5.8705,.5427-6.6647,.9753-4.9663,2.7062-4.3328,7.147-8.1273,8.4524-4.0844,1.4051-7.7237-2.7416-9.4277-1.1378-1.3323,1.2541-.2599,4.8742,1.3004,7.1522,3.7326,5.4494,11.5265,5.0708,12.0283,5.0389Z"/><path d="M455.2794,118.116c-2.8035-.5792-7.0591,5.3047-5.6909,7.7237,1.0661,1.8847,6.1344,2.7068,8.1302-.2033,1.9151-2.793-.3298-7.0847-2.4393-7.5204Z"/><path d="M453.2471,99.0103c-3.549,4.3735,4.4129,18.3924,7.9267,17.6829,3.2077-.6476,6.1853-14.2715,.2033-18.0895-2.4123-1.5396-6.4883-1.6166-8.13,.4066Z"/><path d="M465.0356,90.8803c-1.8383-.2843-4.3087,.6807-4.6747,2.2356-.7518,3.1924,7.3668,8.8709,9.1462,7.5204,1.5645-1.1874-.0944-9.0793-4.4714-9.756Z"/><path d="M479.2633,106.9373c.7418-.6054-1.454-2.811-4.2684-10.366-.2916-.7827-.6583-1.8068-1.2194-1.8291-.9362-.0369-2.2325,2.7242-2.0326,5.0813,.3885,4.5763,6.4478,7.9892,7.5204,7.1138Z"/><path d="M468.6942,123.8071c2.7017,3.4442,8.5164,3.3768,10.1628,1.2194,2.5115-3.2912-3.2835-13.2738-6.9108-12.8047-2.801,.3623-6.645,7.2598-3.252,11.5853Z"/><path d="M495.1169,101.2462c-1.4164-.7365-2.4307,.6346-4.8782,.6096-3.6227-.0367-4.9038-3.0768-6.504-2.4389-2.0888,.8328-3.0535,7.2699,0,9.756,1.7924,1.4592,4.2745,.9916,6.3009,.6098,1.6459-.3101,5.9372-1.1188,6.7073-4.0651,.4235-1.6208-.2524-3.7571-1.626-4.4714Z"/><path d="M442.6813,110.9002c-.3948,.0734-1.4416,.2828-2.3025,1.1511-1.7491,1.7645-1.8066,5.3175,.1919,7.2907,.0854,.0843,1.8647,1.7844,4.221,1.343,2.7036-.5066,4.9718-3.6088,4.029-6.5231-.8727-2.6969-3.9875-3.6621-6.1394-3.2616Z"/><path d="M430.9777,95.1676c-1.5851,4.3787,5.0009,12.3954,10.5523,11.3197,1.9035-.3688,3.9029-1.849,4.4129-3.8371,1.2171-4.7473-6.2204-11.7588-11.5119-10.3606-.1846,.0489-2.6824,.7481-3.4534,2.878Z"/><path d="M429.0591,133.1559c.8253,.0889,2.227-7.4434,2.878-12.471,1.0055-7.7631,1.4586-11.7111-.9593-14.965-1.7351-2.3351-4.3122-3.5096-6.715-4.6047-.639-.2912-1.4154-.6002-1.841-.2647-.6197,.4884-.3587,2.2356,.498,3.3344,1.3269,1.7021,3.2946,.837,4.7964,1.9186,2.3208,1.6715,1.0671,6.2181,.5756,12.6627-.5299,6.9468-.0371,14.303,.7674,14.3896Z"/><path d="M473.951,161.9517c3.506-2.7976,4.0871-7.4308,4.4511-10.3333,.095-.7565,1.2427-10.5263-2.3846-11.9232-3.3227-1.2797-8.5756,5.2659-9.0616,5.882-3.5736,4.5291-2.3634,6.6639-5.5642,11.1284-3.7135,5.1797-8.9716,7.3689-11.1284,8.2668-6.2602,2.6063-12.3365,2.4492-13.831,2.3848-5.1505-.2222-8.1858-1.6017-9.3797,0-.9062,1.2161,.3654,2.6522,.318,7.4719-.0248,2.5064-.0371,3.7597-.7726,4.9156-1.3575,2.1335-3.8704,2.1196-7.6532,3.1922-2.5188,.7143-7.6618,2.1727-10.3335,5.0871-4.8606,5.3026-2.3988,16.3607-.159,16.6926,2.0674,.3064,1.961-8.8187,8.9026-12.8771,7.0956-4.1482,16.3494,.0401,17.3764-2.6218,.7428-1.9251-3.8568-4.7406-3.0684-6.2808,1.1183-2.1844,11.3025,1.6598,12.1586-.1303,.8286-1.7321-8.1126-6.5757-7.2303-8.9314,.85-2.2694,9.2702,1.9019,17.8052-2.2258,4.6777-2.2621,4.621-4.7104,10.3337-6.8361,4.7645-1.7728,6.5237-.7097,9.2206-2.8616Z"/><path d="M417.2114,171.8703c-9.382-.9002-16.9435,3.0584-18.7035,8.7283-1.5979,5.1476,1.5966,11.6721,3.8967,11.6897,2.5585,.0197,2.081-8.0264,8.2607-11.8456,4.8681-3.0089,11.546-1.9595,11.5337-2.4939-.0067-.3025-2.1337-.0533-3.5847-1.4028-1.3321-1.239-1.4722-3.247-1.4028-4.6758Z"/><path d="M421.7315,161.8951c1.5234,.3193,1.6686-13.1932,11.5337-20.2624,5.2399-3.7544,11.0923-4.1656,20.5741-4.8316,12.0869-.849,20.6062,.9362,20.7298,.1559,.1557-.9822-13.2761-4.2191-13.2761-4.2193-.297-.0214-11.6981-2.8874-21.3406-.2587-2.3342,.6365-10.512,3.2159-15.4152,11.0241-5.169,8.2313-4.0926,18.1222-2.8056,18.392Z"/><path d="M384.7155,218.6625c2.3093,.3123,9.8865-25.0569,4.7293-27.9808-1.1494-.6516-2.9113-.1775-3.9411,.5912-2.2725,1.6967-1.884,5.5063-1.5765,10.0495,.9402,13.8818-.0501,17.2268,.7884,17.3402Z"/><path d="M408.1711,226.9188c.6044,.4312,3.3458-2.5384,3.8335-3.0669,5.4673-5.9225,6.7442-14.1549,5.7503-14.5675-1.5465-.6421-10.9182,16.6824-9.5838,17.6344Z"/><path d="M420.0551,196.8254c-.2954-1.2534-1.5853-2.3575-2.3002-2.1085-.7151,.249-.7439,1.8142-.7665,3.067-.0206,1.1213-.0524,2.871,.575,3.0668,.8091,.2526,2.9692-1.9992,2.4918-4.0252Z"/><path d="M442.0398,208.2781c1.3201,.1733,2.8715-.4535,3.2411-1.5125,.6004-1.7214-1.917-4.6015-3.8893-4.1054-1.2838,.3231-2.4477,2.1044-1.9447,3.6732,.3929,1.226,1.6428,1.8199,2.5929,1.9447Z"/><path d="M455.4724,270.3104c7.1008-8.3577,9.5886-17.6615,8.4948-18.3109-1.5549-.9233-11.8668,14.7493-22.4638,17.7446-.0002,0-4.8864,1.3812-9.8162-.1888-.7625-.2428-2.0076-.7699-3.0204-1.8877-.7609-.8397-.9037-1.4756-.9438-1.699,0-.0002-.1764-.9821,.3774-2.0765,1.1253-2.2227,6.7092-2.8668,7.9286-3.0203,6.6653-.8388,11.5679-3.2072,15.4794-5.0969,3.0309-1.4643,7.0058-3.4352,10.3824-7.5509,3.5891-4.3745,5.9802-10.5355,4.5304-11.7039-1.2553-1.0119-4.7578,2.2321-9.816,5.2857-4.9004,2.9584-11.0317,4.4615-23.0304,7.9284-3.5583,1.0282-6.1742,1.7067-8.4946,2.2653-6.4283,1.5476-9.6115,2.4556-9.8162,2.0765-.7741-1.4326,10.0413-13.1935,25.8618-17.7446,7.2603-2.0886,13.7097-2.1223,19.2548-7.9285,.7508-.786,4.7979-5.0235,3.5866-7.5509-1.4382-3.0016-10.2947-3.5943-16.2344,.1888-4.6844,2.9836-4.5872,6.7988-9.4386,8.306-3.2283,1.0029-3.7964-.5233-8.3058,.3775-5.7035,1.1392-8.5078,4.3221-9.8164,3.2092-1.0455-.8893-.0709-3.6151,.1888-4.3418,1.4498-4.0548,4.0899-3.9046,6.2296-7.5509,2.3155-3.9463,2.0141-8.8789,1.8876-10.9488-.0306-.5013-.1926-2.8649-.1888-6.0407,.0042-3.2432,.1768-3.6531,.3776-3.9642,1.9277-2.987,9.1609-1.0781,9.293-1.8702,.0789-.4722-2.4404-1.463-4.92-1.7156-.7884-.0803-2.1861-.2104-3.8878,.2092-.519,.128-4.4698,1.0848-5.7947,3.8243-1.3501,2.7922,.6738,5.1807,1.275,8.692,.4221,2.4649,.2041,5.8404-7.3014,17.4998-3.5102,5.4533-5.9307,9.2131-8.9943,13.0315-1.5612,1.9457-2.8731,3.3829-3.7538,4.3524-14.4299,15.883-23.108,20.4599-22.2513,26.2148,.8236,5.5316,9.9205,8.5542,14.8102,10.1789,10.1439,3.3704,20.9538,2.3348,20.9538,2.2653,0-.0675-3.4658,.3193-8.1885-1.0707-.4007-.1179-2.5736-.7676-4.7316-1.8925-2.0399-1.0635-11.5328-6.0124-11.3556-13.2481,.1653-6.7403,8.6429-12.2345,10.567-11.0401,1.2838,.7971-.1435,4.7008,1.1039,5.2046,1.0917,.4407,2.423-2.4521,6.1512-3.7852,.4296-.1537,3.4205-1.2232,4.1885-.2187,1.1345,1.4841-3.943,5.7163-2.6428,8.1172,.639,1.1802,2.7135,1.7229,4.2896,1.2489,3.6472-1.0967,2.6797-7.0524,6.4662-8.832,3.5776-1.6814,9.1359,1.4281,8.9899,2.3658-.0516,.3309-.8123,.3834-2.0504,.6308-.8051,.161-6.5682,1.3128-9.5781,4.209-3.1767,3.0565-3.0389,7.8123-3.0204,8.1172,.3,5.0053,4.3798,9.5878,8.6836,11.3263,10.1445,4.0981,22.9364-7.0379,28.5044-13.5916Z"/><path d="M434.0965,224.1164c.5247,.4965,4.2875-5.1865,12.253-8.0115,8.1113-2.8768,14.7483-.7214,14.8448-1.4138,.1095-.7882-8.3222-4.8074-16.2587-1.8851-7.6091,2.8017-11.4258,10.755-10.8391,11.3104Z"/><path d="M409.9071,268.2929c-.5022,.8475-.0466,2.1122,.6306,2.8388,.7934,.8508,2.0156,1.0979,2.9967,.7886,.2576-.0812,1.0732-.3384,1.4196-1.104,.4095-.906-.0902-1.9663-.631-2.5234-1.1754-1.2114-3.6896-1.2267-4.4159,0Z"/><path d="M402.3366,270.0278c-.4263,.6667-.5205,1.677,0,2.3657,.7527,.9957,2.566,1.0225,3.4698,0,.7359-.8326,.7711-2.2508,0-2.9966-.9465-.9154-2.759-.4803-3.4698,.6309Z"/><path d="M408.8028,265.1537c.5085-.376,1.0103-1.1508,.7539-1.8074-.3147-.8054-1.6065-1.0124-2.3781-.6136-.3289,.1699-.5093,.4221-.5836,.5283-.3451,.4935-.5744,1.3543-.1578,1.8926,.4993,.6454,1.6795,.5075,2.3655,0Z"/><path d="M415.8589,312.7434c3.1838,.8479,8.122-22.8646,7.9498-25.5857-.0866-1.3692-.7915-2.0919-.7917-2.092-.1888-.1818-.5349-.467-1.0437-.6432-.0002-.0001-.497-.172-1.0072-.1537-1.107,.0398-1.99,1.0075-2.2083,1.2273-2.1484,2.162-7.5965-.0119-8.6889,1.6616-.7816,1.1974,1.1496,3.6182,2.1844,5.1541,6.1293,9.0957,1.4255,19.851,3.6055,20.4317Z"/><path d="M471.2797,212.6683c1.6917-2.467-.2912-6.2577-2.1542-6.6426-2.4764-.5117-6.2353,4.6855-5.0269,6.8221,.9417,1.6647,5.4186,2.3909,7.1812-.1796Z"/><path d="M474.5114,188.7909c-2.1307-1.3598-5.731-1.4278-7.1812,.3591-3.1347,3.8631,3.8979,16.2456,7.0016,15.619,2.8333-.572,5.4633-12.6057,.1796-15.9782Z"/><path d="M477.7428,181.9688c-1.6239-.2509-3.8056,.6014-4.1291,1.9749-.6642,2.8199,6.5069,7.8355,8.0786,6.6425,1.382-1.0487-.0833-8.0194-3.9495-8.6173Z"/><path d="M463.4205,202.5331c-.7707-2.3823-3.522-3.2348-5.4228-2.8811-.3487,.065-1.2734,.2501-2.0336,1.017-1.5452,1.5582-1.596,4.6966,.1695,6.4396,.0753,.0745,1.647,1.5761,3.7282,1.1862,2.3879-.4475,4.3915-3.1876,3.5587-5.7617Z"/><path d="M456.9807,195.7543c1.6816-.3256,3.4475-1.6331,3.8977-3.3892,1.0753-4.1931-5.4941-10.3862-10.1678-9.1514-.1634,.0432-2.3695,.6608-3.0504,2.5421-1.4001,3.8677,4.4171,10.9488,9.3205,9.9985Z"/><path d="M500.5615,192.2581c1.6917-2.467-.2912-6.2577-2.1542-6.6425-2.4764-.5117-6.2353,4.6854-5.0267,6.822,.9415,1.6648,5.4184,2.3909,7.181-.1796Z"/><path d="M503.6136,184.3589c2.8333-.5721,5.4633-12.6059,.1796-15.9781-2.1307-1.36-5.731-1.428-7.1812,.3591-3.1347,3.8631,3.8979,16.2455,7.0016,15.6189Z"/><path d="M515.2016,169.2692c1.1156-.8469-.0675-6.475-3.1891-6.9575-1.3111-.2029-3.0726,.4854-3.3338,1.5943-.5362,2.2765,5.2537,6.3263,6.5229,5.3632Z"/><path d="M487.5273,178.9602c-.2815,.0524-1.0281,.2018-1.6419,.8211-1.2476,1.2583-1.2885,3.792,.1368,5.1992,.0608,.0602,1.33,1.2725,3.0103,.9579,1.9279-.3612,3.5457-2.5736,2.8731-4.6521-.6222-1.9233-2.8436-2.6115-4.3783-2.326Z"/><path d="M479.9925,162.8036c-.1634,.0432-2.3695,.6608-3.0504,2.5421-1.4001,3.8677,4.4171,10.9486,9.3205,9.9983,1.6816-.3256,3.4475-1.6329,3.8977-3.3892,1.0753-4.1931-5.4941-10.3862-10.1678-9.1512Z"/><path d="M495.0674,198.1323c-.7774-1.3741-4.4729-1.9736-5.9277,.1481-1.3965,2.0365,.2404,5.1656,1.7783,5.4832,2.0441,.4222,5.1469-3.8677,4.1494-5.6313Z"/><path d="M486.6204,204.8009c-2.3386,.4721-4.5098,10.4054-.1481,13.189,1.7588,1.1225,4.7305,1.1786,5.9275-.2964,2.5876-3.1888-3.2176-13.4099-5.7794-12.8926Z"/><path d="M480.5446,216.5081c-1.1406,.8657,.069,6.6196,3.2602,7.1131,1.3405,.2073,3.1414-.4963,3.4085-1.63,.5479-2.3276-5.3712-6.4678-6.6687-5.4831Z"/><path d="M500.1034,209.0246c.2878-.0535,1.051-.2062,1.6787-.8392,1.2755-1.2865,1.3174-3.877-.1397-5.3156-.0625-.0615-1.3598-1.3011-3.0775-.9793-1.9713,.3694-3.625,2.6313-2.9378,4.756,.6361,1.9664,2.9071,2.6701,4.4763,2.3781Z"/><path d="M500.9429,212.2421c-1.3881,.2688-2.8459,1.348-3.2176,2.7976-.8876,3.4613,4.5354,8.5733,8.3933,7.5538,.1347-.0356,1.9558-.5454,2.5178-2.0983,1.1557-3.1925-3.646-9.0375-7.6934-8.2531Z"/><path d="M514.5605,133.2264c2.0443,.4223,5.1469-3.8677,4.1494-5.6313-.7772-1.3741-4.4727-1.9734-5.9275,.1483-1.3965,2.0363,.2402,5.1654,1.7781,5.483Z"/><path d="M510.1149,147.4528c1.7588,1.1225,4.7305,1.1788,5.9275-.2964,2.5876-3.1886-3.2176-13.4099-5.7794-12.8926-2.3386,.472-4.5096,10.4055-.1481,13.189Z"/><path d="M504.4563,149.8642c.5482-2.3277-5.3712-6.4679-6.6687-5.4832-1.1406,.8655,.069,6.6198,3.2602,7.1132,1.3405,.2073,3.1414-.4963,3.4085-1.63Z"/><path d="M522.2074,131.3533c-1.9711,.3696-3.625,2.6315-2.9378,4.7561,.6363,1.9665,2.9073,2.6701,4.4763,2.3781,.2878-.0535,1.051-.2062,1.6787-.8391,1.2755-1.2866,1.3174-3.8771-.1397-5.3158-.0623-.0615-1.3598-1.3011-3.0775-.9793Z"/><path d="M524.5855,141.705c-1.3879,.2687-2.8459,1.348-3.2176,2.7976-.8874,3.4611,4.5354,8.5733,8.3933,7.5537,.1347-.0357,1.956-.5454,2.518-2.0982,1.1557-3.1926-3.6462-9.0377-7.6937-8.2531Z"/><path d="M524.7462,177.6201c-.7772-1.3741-4.4727-1.9736-5.9277,.1481-1.3965,2.0365,.2404,5.1656,1.7783,5.4832,2.0441,.4223,5.1469-3.8677,4.1494-5.6313Z"/><path d="M511.9404,192.5358c1.7588,1.1225,4.7307,1.1785,5.9277-.2964,2.5876-3.1886-3.2176-13.4099-5.7794-12.8926-2.3388,.4722-4.5096,10.4053-.1483,13.189Z"/><path d="M517.281,206.7579c1.3405,.2073,3.1414-.4963,3.4085-1.63,.5479-2.3276-5.3712-6.4678-6.6687-5.4831-1.1406,.8655,.069,6.6197,3.2602,7.1131Z"/><path d="M529.7821,188.5125c.2878-.0535,1.051-.2062,1.6787-.8393,1.2755-1.2864,1.3174-3.8769-.1397-5.3156-.0625-.0615-1.3598-1.3008-3.0775-.979-1.9713,.3692-3.625,2.6311-2.9378,4.7557,.6361,1.9665,2.9071,2.6701,4.4763,2.3783Z"/><path d="M535.7973,202.0814c.1347-.0357,1.9558-.5454,2.5178-2.0984,1.1557-3.1924-3.646-9.0373-7.6934-8.2531-1.3881,.2689-2.8459,1.348-3.2176,2.7976-.8876,3.4614,4.5354,8.5733,8.3933,7.5539Z"/><path d="M530.4765,168.7347c.7498-1.948-2.9772-5.7085-4.8799-5.0116-1.4823,.5427-2.6759,4.0911-.8198,5.8724,1.7814,1.7097,5.1354,.6048,5.6997-.8607Z"/><path d="M543.7878,175.4397c1.3942-1.5522,1.934-4.475,.6738-5.8965-2.7244-3.0728-13.7552,.9887-13.6623,3.6007,.0845,2.3844,9.5311,6.1453,12.9885,2.2958Z"/><path d="M548.909,178.9896c.4229-1.2889,.0222-3.1805-1.0527-3.6288-2.2071-.9201-7.2567,4.2453-6.4969,5.6859,.6684,1.2664,6.5426,1.0111,7.5495-2.0571Z"/><path d="M529.8749,160.885c.0432,2.0049,2.0051,4.0053,4.2136,3.6734,2.0437-.3071,3.1081-2.433,3.0758-4.0288-.0059-.2926-.0321-1.0705-.5544-1.793-1.0613-1.468-3.6105-1.9316-5.2674-.7284-.0709,.0514-1.5052,1.1295-1.4676,2.8767Z"/><path d="M551.5321,156.8066c-.013-.1389-.2192-2.0185-1.6598-2.8261-2.9615-1.6606-9.511,2.1242-9.3969,6.2456,.039,1.4131,.8664,3.0271,2.2358,3.6302,3.2705,1.4399,9.198-3.0773,8.8208-7.0496Z"/><path d="M444.6377,79.1904c-1.4825,.5429-2.6764,4.0911-.82,5.8726,1.7817,1.7097,5.1356,.6048,5.6995-.8609,.75-1.948-2.9768-5.7085-4.8795-5.0116Z"/><path d="M450.3834,73.4756c-.0707,.0516-1.5052,1.1295-1.4678,2.8769,.0432,2.0049,2.0053,4.0051,4.2136,3.6732,2.0437-.3071,3.1083-2.433,3.076-4.0286-.0059-.2929-.0321-1.0707-.5544-1.7932-1.0615-1.468-3.6103-1.9316-5.2674-.7284Z"/><path d="M468.9134,69.4478c-2.9617-1.6606-9.511,2.1242-9.3969,6.2456,.039,1.4131,.866,3.0273,2.2356,3.6304,3.2703,1.4399,9.1978-3.0773,8.821-7.0498-.0132-.1387-.2194-2.0185-1.6598-2.8261Z"/><path d="M489.9471,304.6399c.8056-1.6331-3.5419-5.2855-3.9984-5.6641-7.6551-6.3488-13.9069-2.903-22.9897-8.9961-2.2946-1.5393-4.1341-3.2608-4.9978-2.6655-1.0737,.74-.164,4.7315,1.6659,7.6632,3.6319,5.8187,10.7827,7.2931,20.6576,9.3292,4.3619,.8994,8.9343,1.809,9.6624,.3332Z"/><path d="M505.2736,302.6409c1.3269-1.5087-1.0506-6.2987-3.9982-9.3292-6.9317-7.1265-19.6637-7.2442-20.6576-4.6647-1.0424,2.705,10.5171,9.1691,11.9948,9.9956,2.5614,1.4324,10.8443,6.0643,12.661,3.9983Z"/><path d="M456.6601,52.2396c5.4225,3.1708,11.0602,4.2006,11.0605,4.2006,6.4821,1.1838,9.9973-.2861,12.1465,2.2266,2.2598,2.6424,.9717,7.3064,.5608,8.7944-1.5309,5.5424-5.112,6.4998-5.4736,10.1026-.434,4.3222,3.4973,8.6771,7.249,10.5037,3.8856,1.8916,5.4205-.2529,10.0788,.9678,6.5291,1.7109,12.9102,8.2488,12.5518,14.0879-.2543,4.1398-3.6962,4.6724-3.8973,9.1036-.2572,5.6651,5.0521,11.7702,8.8077,11.3562,3.1295-.345,3.9735-5.0837,6.6311-4.8619,2.8823,.2405,4.299,6.0167,5.4347,5.6956,1.2642-.3575-.707-7.4515,2.2406-9.2941,.8444-.5278,1.8098-.448,2.4824-.3924,1.8844,.1558,3.1155,1.266,5.5007,3.48,3.151,2.9249,4.7266,4.3873,4.9393,4.6026,2.6264,2.6578,4.0508,4.0992,5.5921,5.9064,4.539,5.3226,6.2733,9.3415,6.4485,9.2479,.3515-.1878-3.3042-18.1548-17.0946-26.6689-6.5906-4.069-14.4933-5.4508-14.4456-8.4033,.0307-1.9005,3.5273-2.4625,6.3768-7.5362,.7477-1.3314,1.7139-3.052,1.1159-3.7876-1.2845-1.5798-7.4619,4.2405-12.3685,2.2377-3.3253-1.3574-5.496-6.0752-4.643-9.7309,.3257-1.396,1.4782-4.2908,10.2113-7.8669,13.3108-5.4507,17.5521-1.4367,22.1971-5.727,3.2202-2.9742,3.1162-11.8127,2.9085-29.4895-.0481-4.085-.2-8.585-3.3836-12.133-.5583-.622-3.5027-3.7756-7.7397-4.046-4.9757-.3178-9.2297,3.1604-12.8784,7.7088-9.5165,11.8634-15.7376,20.035-25.109,26.8108-6.0943,4.4063,14.367-18.5209,21.2837-27.8372,12.0984-16.2959,17.1211-18.4438,21.2087-18.2802,10.9267,.437,17.3724,17.4733,19.1541,16.4429,1.8272-1.0573-.7626-16.4834-12.158-22.9381-2.0961-1.1873-6.851-3.4072-12.8377-2.8144-11.9402,1.1823-14.1403,12.1035-26.8952,19.9341-17.2058,10.5632-38.219,6.0492-38.417,4.6575-.1098-.7738,6.1176-1.2809,7.0978-4.8975,.5684-2.0974-.9181-4.1679-2.7164-6.6022-2.6743-3.6197-5.6024-7.5042-11.1382-9.0436-.716-.1991-8.9465-2.3585-13.9798,2.5073-3.8664,3.737-3.4762,9.3272-3.1223,14.3963,.1067,1.5263,1.6267,19.5481,15.0195,27.38Z"/><path d="M512.7946,303.5458c-.8655-.2872-2.0428,.2734-2.3655,1.2522-.0138,.0419-.2824,.904,.2471,1.6066,.6075,.8061,1.9971,1.0458,2.8014,.2605,.7443-.7268,.5534-1.908,.0709-2.5502-.0885-.1178-.3281-.4277-.7539-.5691Z"/><path d="M514.374,247.9023c1.3269-1.5087-1.0508-6.2987-3.9982-9.3292-6.9315-7.1265-19.6635-7.2442-20.6576-4.6647-1.0424,2.705,10.5169,9.1691,11.9948,9.9956,2.5612,1.4324,10.8441,6.0643,12.661,3.9983Z"/><path d="M496.7152,256.5651c-.9581-.4399-4.2533-1.9532-5.6643-.6664-1.8761,1.7111,.1777,7.8269,3.6651,11.6615,3.6145,3.9743,9.8984,6.7401,11.6614,4.9978,2.2474-2.2206-2.0894-12.5153-9.6622-15.9929Z"/><path d="M511.9414,257.5002c-1.5618,.9148-1.2809,4.0214-1.1615,5.3428,.0818,.9038,.6793,6.2806,4.8782,8.1304,.3566,.157,3.385,1.446,5.1106,0,1.9262-1.614,.8823-5.5066,0-7.4335-1.8882-4.1233-6.7152-7.2769-8.8273-6.0397Z"/><path d="M526.415,259.3964c-.4458,.6579,.1108,2.458,1.3927,2.6393,1.2306,.174,2.2753-1.2638,2.0743-2.0283-.2668-1.0162-2.895-1.4553-3.467-.6111Z"/><path d="M521.8951,248.8073c-.8653-.2872-2.0426,.2734-2.3653,1.2522-.0138,.0419-.2824,.904,.2469,1.6066,.6073,.8061,1.9973,1.0458,2.8014,.2605,.7441-.7268,.5534-1.908,.0707-2.5502-.0885-.1178-.3281-.4277-.7537-.5691Z"/><path d="M514.0583,282.5399c-1.2612,1.5749,1.5396,8.0546,1.8977,8.883,.6205,1.4358,2.6273,6.0789,4.0131,5.0733,1.012-.7343,1.4974-4.3396,1.2071-6.8995-.6822-6.0201-5.9151-8.5587-7.1178-7.0568Z"/><path d="M494.8881,247.7162c.5486-3.1112-8.9439-9.0005-17.1329-7.457-1.0357,.1952-4.5992,.8669-5.0058,2.7327-.5408,2.481,4.6722,6.2819,9.735,7.3928,5.2472,1.1513,11.9732-.2274,12.4036-2.6685Z"/><path d="M477.9264,283.5086c.3566,.1571,3.385,1.446,5.1106,0,1.926-1.614,.8823-5.5065,0-7.4334-1.8884-4.1234-6.7155-7.277-8.8273-6.0398-1.5618,.915-1.2811,4.0214-1.1615,5.3428,.0818,.9038,.6791,6.2806,4.8782,8.1304Z"/><path d="M490.0759,274.571c1.2306,.174,2.2751-1.2639,2.0743-2.0284-.2668-1.0161-2.8952-1.4553-3.4672-.611-.4456,.6578,.1108,2.458,1.3929,2.6393Z"/><path d="M484.917,261.9116c-.0885-.1177-.3281-.4276-.7539-.569-.8651-.2873-2.0426,.2733-2.3653,1.2522-.0136,.0419-.2824,.904,.2469,1.6065,.6075,.8061,1.9973,1.0458,2.8014,.2605,.7443-.7267,.5534-1.908,.0709-2.5502Z"/><path d="M529.3168,242.5648c-2.514,3.1395,3.0691,16.0564,3.7827,17.7078,1.2373,2.8622,5.2378,12.118,8.0001,10.1135,2.0172-1.4638,2.9852-8.6508,2.4066-13.754-1.3602-12.0007-11.7919-17.0613-14.1895-14.0673Z"/><path d="M546.3824,201.8641c-3.5117,4.9277,1.4844,22.9574,2.123,25.2624,1.1068,3.9951,4.6869,16.9145,8.3417,13.6051,2.6692-2.4167,4.8635-13.0225,4.8765-20.3749,.0302-17.2901-11.9922-23.1918-15.3412-18.4926Z"/><path d="M524.5511,213.7207c.0008-1.5786-2.9197-3.9211-5.2311-2.7917-2.2186,1.084-2.3361,4.6134-1.1542,5.6476,1.5706,1.3747,6.3844-.8296,6.3853-2.8558Z"/><path d="M527.9382,221.0828c-.0239-.0841-.5421-1.802-2.1956-2.3684-1.8972-.6498-4.4509,.5035-4.8996,2.6912-.4154,2.0245,1.2142,3.7559,2.7234,4.275,.2769,.0952,1.0162,.3384,1.8742,.0968,1.7439-.491,3.0569-2.7246,2.4976-4.6945Z"/><path d="M491.8519,146.9353c.0008-1.5788-2.9197-3.9212-5.2311-2.7917-2.2186,1.0839-2.3361,4.6133-1.1544,5.6475,1.5706,1.3747,6.3846-.8297,6.3855-2.8557Z"/><path d="M490.8672,158.895c.2769,.095,1.0162,.3384,1.8742,.0967,1.7437-.4909,3.0567-2.7246,2.4976-4.6944-.0239-.0841-.5421-1.802-2.1956-2.3684-1.8972-.6499-4.4509,.5035-4.8996,2.691-.4154,2.0246,1.2142,3.7559,2.7234,4.2751Z"/><path d="M461.8283,275.213c-.8653-.2873-2.0426,.2733-2.3653,1.2522-.0138,.0419-.2826,.904,.2469,1.6065,.6075,.8061,1.9971,1.0458,2.8014,.2605,.7443-.7267,.5534-1.908,.0709-2.5502-.0885-.1177-.3281-.4276-.7539-.569Z"/><path d="M450.9399,282.4666c-2.2698-.3462-5.6794,1.2971-6.8925,3.5812-.0516,.0977-1.0774,2.1044,.1332,3.4868,1.3894,1.5862,5.1098,1.6497,7.5747-.3669,2.2809-1.8662,2.158-4.4271,1.0546-5.6911-.2022-.2318-.7527-.8397-1.87-1.0101Z"/><path d="M465.8147,256.879c-.1592,1.6816,2.3111,4.2545,5.3735,5.0096,2.8341,.6987,4.5243-.5665,4.654-1.904,.0237-.2453,.0726-.9022-.5643-1.7444-1.2945-1.7117-4.737-3.2848-7.1386-3.0606-.1026,.0096-2.1855,.2338-2.3246,1.6993Z"/><path d="M359.9041,86.8855c1.0913,.0434,.9377-3.7735,4.0733-9.0041,.3556-.593,.7806-1.2494,.536-1.6077-.5291-.7749-4.1501-.094-5.7884,2.1437-2.2834,3.119-.0971,8.4176,1.1792,8.4682Z"/><path d="M363.763,89.2438c.0428,.2014,.5272,2.3701,1.7152,2.5725,1.5291,.2605,3.809-2.8092,3.9661-5.8954,.0749-1.4708-.283-3.913-1.3936-4.1805-1.6287-.3927-5.0647,3.8478-4.2877,7.5034Z"/><path d="M354.8813,117.3807c1.0348,.1418,3.3793-3.4505,1.9877-5.3511-.5847-.7984-1.8767-1.3644-2.5992-.9176-1.4836,.918-.5656,6.1073,.6115,6.2686Z"/><path d="M375.5058,94.2047c-1.8104,.3375-2.5975,2.8509-1.9539,3.8295,.8551,1.3008,4.754,.6747,5.1581-.7814,.3147-1.1347-1.318-3.3997-3.2042-3.0481Z"/><path d="M363.7044,103.1925c.3354,1.5196,1.8731,3.1165,3.2824,2.9696,3.0462-.3168,5.3752-8.769,3.7515-9.8473-1.4825-.9845-7.8661,3.1091-7.0339,6.8776Z"/><path d="M359.4484,101.4799c1.5167-.9386,.5782-6.2439-.6251-6.4088-1.0581-.1447-3.4551,3.5276-2.0321,5.4708,.5977,.8163,1.9184,1.395,2.6573,.9379Z"/><path d="M378.5723,101.0792c-1.2343-.8446-3.2994-.524-4.0576,.9591-.7015,1.3724,.125,2.9413,1.1068,3.6149,.18,.1234,.6629,.4456,1.3279,.4426,1.351-.0059,2.7393-1.3499,2.7294-2.8771-.0004-.0652-.0308-1.4032-1.1066-2.1395Z"/><path d="M371.6377,115.9815c.0898,.0524,1.3191,.7439,2.4345,.2213,2.2933-1.0743,2.8433-6.6892,.2949-8.4103-.8735-.5901-2.2115-.7896-3.1721-.2211-2.2935,1.3573-2.1297,6.9131,.4426,8.4101Z"/><path d="M352.3065,123.7706c-1.8104,.3375-2.5973,2.8509-1.9539,3.8297,.8553,1.3006,4.7542,.6747,5.1583-.7816,.3147-1.1347-1.318-3.3997-3.2044-3.0481Z"/><path d="M344.1735,130.9014c3.0462-.3172,5.3752-8.7692,3.7513-9.8475-1.4823-.9845-7.8659,3.1093-7.0339,6.8774,.3356,1.5196,1.8733,3.1165,3.2826,2.9701Z"/><path d="M338.864,139.1864c1.5167-.9386,.5784-6.2439-.6251-6.4088-1.0581-.1447-3.4549,3.5276-2.0319,5.4708,.5975,.8163,1.9184,1.3948,2.6571,.9379Z"/><path d="M351.3157,131.6042c-.7015,1.3724,.125,2.9413,1.1066,3.6149,.18,.1234,.6631,.4456,1.3279,.4426,1.3512-.0059,2.7395-1.3499,2.7296-2.8771-.0004-.0652-.0308-1.4032-1.1066-2.1395-1.2343-.8446-3.2994-.524-4.0576,.9591Z"/><path d="M347.9957,137.1373c-2.2933,1.3573-2.1295,6.9131,.4426,8.4101,.09,.0524,1.3191,.7439,2.4347,.2213,2.2931-1.0743,2.8433-6.6892,.2949-8.4103-.8737-.5899-2.2115-.7896-3.1723-.2211Z"/><path d="M359.7589,122.6025c.0382,1.8414,2.3896,3.0275,3.4601,2.5522,1.4227-.6319,1.4403-4.5807,.0696-5.2168-1.0682-.4955-3.5692,.7464-3.5297,2.6646Z"/><path d="M361.0639,127.6502c-1.2127,1.3021,1.7854,8.2676,5.6391,8.061,1.554-.0835,3.3802-1.3405,3.4651-2.7546,.1838-3.0573-7.7757-6.7329-9.1042-5.3064Z"/><path d="M367.5316,140.284c.9029-.4567,1.6891-1.6656,1.3585-2.4689-.6786-1.6493-6.066-1.5882-6.4247-.4277-.3155,1.0204,2.9172,3.9837,5.0662,2.8966Z"/><path d="M367.0416,120.6973c-1.0346,1.0804-1.055,3.1702,.2849,4.1597,1.2398,.9157,2.9222,.356,3.7467-.5026,.1515-.1575,.5477-.5815,.6533-1.2379,.2146-1.334-.8853-2.9229-2.3936-3.1622-.0646-.0101-1.3896-.198-2.2912,.743Z"/><path d="M372.9796,125.9405c-.7246,.7661-1.1395,2.0533-.7355,3.0938,.9654,2.4842,6.4738,3.2281,8.3702,.9341,.0661-.0801,.9486-1.1804,.6151-2.3661-.6862-2.4374-6.1365-3.8956-8.2498-1.6619Z"/><path d="M354.3457,93.2878c.8328-.8322,.5282-3.6076-1.2866-4.231-1.7418-.5983-3.6651,1.2008-3.5872,2.3697,.1034,1.5532,3.8046,2.9296,4.8738,1.8614Z"/><path d="M348.4564,100.1154c1.1785,.6608,3.0489,.175,3.7928-1.1588,.0319-.0569,.6646-1.236,.0913-2.4068-.6579-1.3432-2.6128-2.0819-4.0032-1.1649-1.2868,.8488-1.3405,2.6214-.8183,3.6911,.0959,.1961,.3575,.7143,.9375,1.0395Z"/><path d="M395.1346,98.4246c-2.2094,3.0177-.094,8.1443,1.141,8.1931,1.0556,.042,.9071-3.651,3.9409-8.7117,.344-.574,.7552-1.2092,.5186-1.5557-.5119-.7498-4.0152-.091-5.6005,2.0743Z"/><path d="M404.1576,101.6397c-1.5761-.3797-4.9002,3.723-4.1486,7.2598,.0413,.1949,.5102,2.2933,1.6596,2.489,1.4796,.2522,3.6852-2.7179,3.8373-5.7041,.0724-1.4229-.2736-3.7859-1.3483-4.0448Z"/><path d="M390.8241,130.0581c-1.4353,.8882-.5473,5.9091,.5918,6.0651,1.0013,.1372,3.2696-3.3384,1.9228-5.1776-.5656-.7724-1.8154-1.3201-2.5146-.8876Z"/><path d="M411.3705,113.6995c-1.7517,.3264-2.5132,2.7582-1.8905,3.7051,.8278,1.2587,4.6,.6528,4.9909-.756,.3046-1.098-1.2752-3.2893-3.1003-2.9491Z"/><path d="M399.9522,122.3953c.3247,1.4703,1.8125,3.0154,3.1761,2.8736,2.9474-.3067,5.2009-8.4843,3.6296-9.5278-1.4343-.9524-7.6106,3.0082-6.8057,6.6542Z"/><path d="M395.2296,114.5378c-1.0237-.1401-3.3426,3.4131-1.9661,5.2932,.5782,.7896,1.8561,1.3497,2.5711,.9075,1.4672-.9079,.5595-6.0412-.605-6.2007Z"/><path d="M410.4118,121.2786c-.6786,1.3281,.1213,2.8461,1.0707,3.4977,.1741,.1196,.6415,.4309,1.2849,.4284,1.3071-.0057,2.6506-1.3061,2.6409-2.7838-.0004-.0634-.0298-1.3577-1.0707-2.0701-1.1941-.8173-3.1922-.507-3.9258,.9279Z"/><path d="M407.1999,126.632c-2.219,1.3132-2.0607,6.689,.4282,8.1373,.0871,.0506,1.2763,.7198,2.3556,.214,2.2188-1.0392,2.751-6.4719,.2855-8.1369-.8454-.571-2.14-.7642-3.0693-.2144Z"/><path d="M387.034,146.0108c.8278,1.2585,4.6,.6528,4.9909-.7563,.3044-1.0976-1.2752-3.2893-3.1003-2.9491-1.7517,.3268-2.5132,2.7586-1.8905,3.7053Z"/><path d="M377.8796,146.3315c.3245,1.4701,1.8123,3.0152,3.1756,2.8731,2.9476-.3067,5.2009-8.4843,3.6298-9.5278-1.4343-.9524-7.6106,3.0087-6.8055,6.6546Z"/><path d="M375.9184,157.221c1.4674-.9081,.5595-6.041-.6048-6.2007-1.0237-.1403-3.3426,3.4129-1.9661,5.2932,.5782,.7898,1.8561,1.3497,2.5708,.9075Z"/><path d="M392.9624,151.0268c-.0004-.0629-.0298-1.3575-1.0707-2.0699-1.1943-.8173-3.1924-.507-3.9258,.9279-.6786,1.3279,.121,2.8459,1.0707,3.4977,.1741,.1194,.6415,.4311,1.2847,.4282,1.3073-.0055,2.6506-1.3061,2.6411-2.7838Z"/><path d="M385.1821,163.3755c.0868,.0506,1.2763,.7198,2.3554,.2142,2.2188-1.0395,2.751-6.4721,.2857-8.1373-.8454-.571-2.1402-.764-3.0695-.214-2.219,1.3132-2.0605,6.6886,.4284,8.1371Z"/><path d="M396.1351,141.1756c.0369,1.7814,2.312,2.9289,3.3477,2.4691,1.3766-.6113,1.3938-4.4318,.0673-5.0473-1.0334-.4796-3.4532,.7221-3.415,2.5782Z"/><path d="M397.3975,146.0592c-1.1733,1.2599,1.7277,7.9993,5.4564,7.7992,1.5033-.0806,3.2703-1.2966,3.3525-2.665,.1777-2.9579-7.5233-6.5141-8.8088-5.1341Z"/><path d="M388.901,126.7936c.8733-.4418,1.6342-1.6113,1.3143-2.3888-.6566-1.5956-5.869-1.5366-6.2164-.4137-.305,.9872,2.8226,3.8541,4.9021,2.8024Z"/><path d="M407.714,141.6727c.2077-1.2908-.8565-2.828-2.316-3.0594-.0625-.0101-1.3443-.1917-2.2169,.7189-1.0011,1.0449-1.0206,3.067,.2757,4.0246,1.1995,.8861,2.8276,.3445,3.6254-.4863,.1462-.1525,.5299-.5626,.6319-1.1978Z"/><path d="M408.9266,144.4051c-.7011,.7412-1.1026,1.9868-.7116,2.9933,.9339,2.4034,6.2636,3.1232,8.0983,.9037,.0642-.0776,.918-1.1418,.5951-2.2891-.664-2.3583-5.937-3.7691-7.9819-1.608Z"/><path d="M389.6529,108.7185c-1.6854-.579-3.5461,1.162-3.471,2.2927,.1003,1.5031,3.6812,2.8345,4.7156,1.801,.8058-.8051,.511-3.4905-1.2446-4.0936Z"/><path d="M385.1993,119.4183c1.1404,.6392,2.9499,.1693,3.6699-1.1211,.0306-.0552,.6428-1.1962,.0881-2.3288-.6365-1.2998-2.5278-2.0143-3.8732-1.1269-1.245,.8211-1.2971,2.536-.7917,3.5709,.0925,.1901,.3459,.6914,.9069,1.0059Z"/><path d="M397.404,80.8682c-1.6453-.0655-1.4135,5.689-6.1409,13.5744-.5358,.8941-1.1767,1.8838-.8081,2.424,.7976,1.1683,6.2565,.1416,8.7266-3.2321,3.4427-4.702,.1464-12.69-1.7777-12.7663Z"/><path d="M391.5864,77.3128c-.0644-.3038-.7949-3.5734-2.5855-3.8784-2.3055-.3927-5.7423,4.235-5.9791,8.8879-.1129,2.2174,.4263,5.8992,2.1007,6.3026,2.4557,.5916,7.6355-5.8012,6.4639-11.3121Z"/><path d="M405.8982,44.3446c2.2362-1.3839,.8528-9.207-.9222-9.4504-1.5601-.2136-5.0943,5.2017-2.9963,8.0673,.8813,1.2037,2.8291,2.0571,3.9185,1.3831Z"/><path d="M369.0528,65.2388c-.4747,1.7105,1.987,5.1253,4.8306,4.595,2.7294-.5087,3.916-4.298,2.9457-5.7731-1.2895-1.961-7.1673-1.0172-7.7763,1.1781Z"/><path d="M386.7262,51.807c-4.5927,.4779-8.1036,13.2201-5.6554,14.8457,2.2348,1.484,11.8584-4.6875,10.6039-10.3686-.5058-2.2908-2.824-4.6982-4.9485-4.4771Z"/><path d="M399.0336,68.5277c1.5952,.2186,5.2084-5.3179,3.0634-8.2477-.901-1.2306-2.8924-2.103-4.0059-1.4139-2.2866,1.4148-.8718,9.4128,.9425,9.6616Z"/><path d="M367.5918,56.2447c.0006,.0984,.0468,2.1154,1.6684,3.2254,1.8607,1.2736,4.9741,.7902,6.117-1.4458,1.0575-2.0691-.1886-4.4343-1.6684-5.4499-.2712-.1861-.9994-.6715-2.0017-.6673-2.037,.0088-4.1301,2.0351-4.1152,4.3376Z"/><path d="M379.7148,37.0037c-.1355-.0789-1.9887-1.1215-3.6703-.3335-3.4572,1.6195-4.2864,10.0845-.4447,12.6789,1.3172,.8897,3.3342,1.1907,4.7823,.3338,3.4578-2.0462,3.2107-10.4223-.6673-12.6791Z"/><path d="M404.0272,20.6661c-.4745,1.7103,1.987,5.1251,4.8308,4.595,2.7294-.5089,3.916-4.298,2.9455-5.7735-1.2893-1.961-7.1673-1.017-7.7763,1.1785Z"/><path d="M415.4637,29.3569c2.2348,1.484,11.8586-4.6877,10.6041-10.3686-.506-2.2908-2.8243-4.6982-4.9485-4.4773-4.5927,.4781-8.1038,13.2201-5.6557,14.8459Z"/><path d="M392.4066,23.1747c-2.145,.9524-2.1718,6.9055-.1051,7.8642,1.6103,.7472,5.3806-1.1248,5.3213-4.0171-.0575-2.7756-3.6023-4.564-5.2162-3.8471Z"/><path d="M383.1896,31.0143c.0973,.0153,2.0949,.2989,3.4542-1.1204,1.5599-1.6283,1.5903-4.7788-.4294-6.2707-1.8691-1.3808-4.4058-.5366-5.6487,.7577-.228,.2375-.8257,.8767-.9847,1.8662-.3235,2.0114,1.3346,4.4066,3.6086,4.7672Z"/><path d="M407.7233,77.5952c2.6256,.9018,5.5252-1.8108,5.4079-3.5725-.1559-2.342-5.7356-4.4167-7.3475-2.8064-1.2557,1.2545-.7961,5.4389,1.9396,6.379Z"/><path d="M414.6624,60.923c-1.7768-.9958-4.5965-.2639-5.7182,1.7468-.0478,.086-1.0017,1.8637-.1374,3.6288,.9916,2.0252,3.939,3.1383,6.0351,1.7559,1.94-1.2794,2.021-3.9516,1.2335-5.5642-.1443-.2958-.5387-1.077-1.4131-1.5673Z"/><path d="M554.4375,35.8361c-1.3548,.1926,.4869,9.9738-1.0577,18.7753-3.6353,20.7145-25.3808,32.3148-23.8112,34.4005,.7791,1.0346,6.4912-1.3489,11.2794-4.7494,15.1421-10.7529,19.8107-30.7944,15.9697-43.6664-.1324-.4435-1.4596-4.8912-2.3802-4.7599Z"/><path d="M240.5215,90.1924c-1.0958-2.1845-2.9943-2.4086-5.9012-6.7187-1.9638-2.9115-2.3804-4.7115-3.7246-6.0865-1.3035-1.3333-2.4584-1.223-2.5859-.0211-.2315,2.1849,2.9667,7.6564,4.1933,9.7549,1.5104,2.5836,3.3602,5.7481,5.2128,7.2616,3.1561,2.5784,4.236-1.3382,2.8055-4.1901Z"/><path d="M344.6527,164.405c-.514,.7262-.639,1.9353-.0915,2.5574,1.004,1.1412,3.4823-.0825,8.8657,.4125,1.6187,.1488,2.7599,.3849,3.479,.5569,.9327,.2228,1.677,.462,3.7588,1.221,2.5759,.9389,3.7425,1.633,3.8553,1.4539,.0724-.1149-.292-.575-2.4209-2.1972-1.1836-.8243-2.9168-1.8983-5.152-2.8365-3.3502-1.406-10.5414-3.6457-12.2945-1.1679Z"/><path d="M360.6448,290.8632c1.1326-1.6209,1.9474-1.716,2.1809-2.568,.4739-1.7282-2.004-4.5274-3.1735-4.153-1.7852,.5713-1.0017,8.6896-.2148,8.7729,.2442,.0258,.2926-.7424,1.2075-2.0519Z"/><path d="M397.3109,281.5672c-3.6751-1.0423-4.2046-.2303-6.7375-.9374-3.8998-1.0885-5.106-3.7002-8.5168-3.7367-.9279-.01-1.853,.1628-1.8534,.1629-1.9289,.3602-3.2226,1.2176-3.8302,1.5946-2.7779,1.7243-6.5841,2.9524-9.4564,3.4149-2.1066,.3391-3.6816,.2613-4.0091,1.1411-.2444,.6569,.3367,1.4893,.8914,2.1102-.6474,2.554-.3266,3.3245,.0585,3.5739,.6656,.431,1.7569-.2036,2.3401-.5119,.3814-.2015,.7428-.4394,1.1104-.6664,.2981,.6338,.7101,1.0959,1.1135,.9781,.5494-.1604,1.403-1.4778,1.2627-2.5465,.0361-.0251,.073-.0495,.1089-.0746,2.1752-1.5146,3.1951-2.3878,3.8352-2.5992,1.0913-.3604,2.0856-.3453,4.0745-.3152,2.1532,.0325,2.0481,.2528,3.433,.2395,3.5081-.0337,5.9156-1.4632,8.4077-.7144,.0713,.0214,.0785,.0246,.2689,.084,.905,.2816,1.5553,.4685,2.0634,.6269-.086,.1024-.1976,.1781-.2591,.3026-.6019,1.2172,.3644,3.0259,1.0176,3.2159,.5685,.1653,1.231-.7965,1.5905-1.8422,.4389,.703,.6419,1.3123,1.2857,1.4306,.3149,.0579,1.0214-.2555,2.4213-.8846,.5998-.2695,.9052-.4074,1.1863-.5672,.926-.5268,1.7668-1.0052,1.7877-1.5028,.0386-.9266-2.7724-1.743-3.595-1.9762Z"/><path d="M402.6842,284.1422c-1.1792-.3759-3.6567,2.4496-3.1735,4.153,.2255,.7952,.9585,.8606,2.0309,2.2998,1.0504,1.4102,1.0917,2.3475,1.3575,2.3201,.7764-.0803,1.5798-8.2006-.2148-8.7729Z"/><path d="M406.6849,165.5729c-2.2354,.9382-3.9686,2.0122-5.1522,2.8365-2.1288,1.6222-2.4932,2.0824-2.4209,2.1972,.1129,.1792,1.2797-.515,3.8553-1.4539,2.0819-.759,2.8264-.9982,3.7588-1.221,.7191-.1719,1.8603-.408,3.479-.5569,5.3834-.4951,7.8619,.7287,8.8659-.4125,.5473-.6221,.4223-1.8313-.0915-2.5574-1.7533-2.4777-8.9444-.2381-12.2945,1.1679Z"/><path d="M383.4682,187.3821c.7263,.5139,1.9354,.6388,2.5576,.0915,1.1412-1.004-.0827-3.4824,.4124-8.8659,.1487-1.6186,.3849-2.7598,.5568-3.479,.2228-.9325,.4621-1.6769,1.2209-3.7589,.939-2.5757,1.6333-3.7423,1.454-3.8552-.1147-.0724-.575,.2921-2.1972,2.4209-.8242,1.1837-1.8983,2.9168-2.8364,5.1521-1.4062,3.3502-3.6455,10.5413-1.1681,12.2946Z"/><path d="M378.8658,175.0874c-.9383-2.2353-2.0122-3.9684-2.8364-5.1521-1.6224-2.1287-2.0827-2.4932-2.1972-2.4209-.1794,.113,.5148,1.2795,1.4538,3.8552,.759,2.0821,.9981,2.8265,1.2209,3.7589,.172,.7192,.4082,1.8604,.557,3.479,.4951,5.3835-.7286,7.8619,.4126,8.8659,.622,.5473,1.831,.4224,2.5572-.0915,2.4777-1.7533,.2383-8.9445-1.1678-12.2946Z"/><path d="M396.863,246.1764c.1519-.4052,.0889-.733,.0879-1.1386-.0082-2.6492-1.4716-5.2128-2.2562-5.0825-.438,.0727-.412,.942-.8683,2.17-.8509,2.2898-2.5423,3.574-4.2386,4.8616-1.2622,.9584-3.9099,2.9854-7.8432,3.2985-3.1744,.2528-6.4964-.4932-8.7914-1.9741-5.3104-3.4265-6.276-4.8355-6.2904-4.8567v-.0002c-1.3984-2.1556-1.4315-3.5828-1.7407-3.5859-.3579-.0035-1.0808,1.8993-.8299,4.0023,.2314,1.938,1.2671,3.6733,4.2812,6.5554,4.9179,4.7026,10.3832,7.7541,11.2821,6.7783,.4036-.4382-.1766-1.6197,.472-2.0583,.2973-.2011,.7613-.1842,1.06,.0179,.6499,.4396,.1489,1.5059,.5639,1.9065,1.2352,1.192,9.1862-4.8607,9.1862-4.8607,0,0,5.033-3.6519,5.9254-6.0335Z"/><path d="M227.1945,66.8014c-1.1875-.4349-3.5134,1.912-3.0453,3.1278,.3519,.9148,2.4451,1.6043,3.5571,.5373,1.1585-1.1118,.4135-3.3263-.5118-3.6651Z"/></g><g><path d="M492.7497,337.9612l-55.5272,40.5842-42.7793-40.5842h-.6835l-15.9049,100.0878h27.2859l7.2634-45.519,6.58,6.0323c4.39,4.1125,8.641,8.2273,13.1644,12.2034,5.6235-3.9761,11.2425-8.091,16.8659-12.2034l8.4974-6.0323-7.2634,45.519h27.4193l15.9044-100.0878h-.8225Z"/><path d="M556.2298,337.9612l-66.0862,100.0878h29.7534l8.0859-13.0259h30.0303l4.1125,13.0259h29.7528l-34.2768-100.0878h-1.3719Zm-17.2769,68.4173c2.1944-3.7036,9.8744-18.3722,10.1469-18.3722,.2725,3.5625,2.4675,12.6123,4.1125,18.3722h-14.2594Z"/><polygon points="602.0261 339.3312 598.1861 363.4632 623.4104 363.4632 611.623 438.049 640.4154 438.049 652.2028 363.4632 677.4322 363.4632 681.2722 339.3312 602.0261 339.3312"/><polygon points="758.8727 363.4632 762.7077 339.3312 696.6221 339.3312 680.9947 438.049 749.1368 438.049 752.9768 413.9194 713.4875 413.9194 715.8215 399.2486 747.9028 399.2486 751.4652 376.6254 719.384 376.6254 721.4399 363.4632 758.8727 363.4632"/><path d="M334.8141,401.9592c-2.2982,2.8328-5.2579,5.2638-8.8064,7.0994l-42.0824,33.9236,21.2212-5.7003c39.2527,0,65.4706-24.5515,65.4706-56.1102,0-1.0783-.0493-2.1563-.0981-3.1856,0-.2939-.0488-.6371-.0981-.98-.0275-.4941,5.8685-6.9267,11.0356-12.6461l-46.6423,37.5992Z"/><polygon points="156.5635 338.4882 153.3655 358.4539 178.1329 338.4882 156.5635 338.4882"/><path d="M187.7628,437.2663h64.7428l5.8248-24.1593h-33.7644l1.7801-11.2919-48.2071,38.861c3.1638-1.1812,6.844-2.6119,9.6238-3.4097Z"/><path d="M305.2491,410.6516c-.5057-.6429-.85-1.4238-.9879-2.2275-.3672-1.9521,.2299-4.0188,.5517-5.925,.3672-2.0209,.7115-4.0648,1.0333-6.1086,.6431-4.3174,1.2632-8.6578,1.9287-12.9752,.758-4.7537,1.4931-9.5305,2.2505-14.2842,.3448-2.1587,.6661-4.3173,1.0109-6.476h5.4884c16.9943,0,24.6872,10.2882,24.6872,21.7936,0,1.1124-.0774,2.218-.2125,3.3123l27.0196-21.781c-6.0462-16.49-22.4042-27.4839-47.2456-27.4839h-15.8797l-43.6411,35.1801c2.8723-.6676,8.6253-2.9174,13.2463-4.3153,.5778-.1748,1.1359-.3445,1.7454-.3445,.909,0,1.8077,.2755,2.556,.7926,.7321,.5059,1.3043,1.2294,1.6296,2.0576,.0951,.2422,.1692,.4925,.2215,.7474,.082,.3999,.0184,.7928-.0464,1.1939-.0373,.2307-.0745,.4614-.1118,.6921-.046,.2849-.092,.5697-.1381,.8547,0,0-9.806,61.8213-9.806,61.8213,0,0,.0919,.046,.0919,.1149h8.9163l30.1178-24.2783c-1.728-.1263-3.3646-.9807-4.4259-2.361Z"/><path d="M236.8594,378.8912c-1.1766,.2206-2.1658,.5087-3.3247,.0776-.3932-.1463-.7652-.3487-1.1021-.5987-.6718-.4984-1.1991-1.1839-1.5068-1.9619-.2546-.6437-.3596-1.2661-.2491-1.9505,.063-.3899,.1295-.7795,.189-1.17,0,0,5.5349-34.7917,5.5349-34.7917h-28.6836l-12.5387,79.2287,.1149-.0893,50.5585-40.7563c-2.5555,.5956-5.9784,1.4469-8.9923,2.012Z"/><path d="M166.6101,356.9892c-2.7596,2.2246-5.5192,4.4493-8.2788,6.6739-.1766,.1425-1.5188,1.227-3.3343,2.6877-.0056,.0043-.1261,.1018-.1312,.1055-.4233,.3406-7.0201,5.6578-20.5175,16.5382,.5394-.1976,1.0798-.3985,1.6276-.6117,2.2595-.8798,4.3872-1.8154,6.4291-2.8026,.0572-.0569,.191-.0911,.2643-.1276,.1044-.052,.2081-.1056,.3112-.1602,.387-.205,.7339-.3668,1.1699-.4471,.2529-.046,.5511-.069,.827-.069,2.2045,0,4.0188,1.5616,4.4091,3.7203,.046,.6661,0,1.332-.0919,2.0209-.1379,1.1024-.4132,2.2047-.5741,3.2381-.6425,4.0647-1.2862,8.1065-1.9287,12.1713-.873,5.5115-1.7454,11.0231-2.6183,16.5117-.758,4.8685-1.5385,9.7141-2.2965,14.5826-.3442,2.0899-.6661,4.1796-.9873,6.2695h28.7061s15.018-94.8146,15.0163-94.8134c-5.4614,4.8812-11.4869,9.7511-18.0018,14.5117Z"/><path d="M71.5358,435.4077c.5225-.125,1.0453-.2489,1.5702-.3632,.2415-.0526,.4835-.1031,.7263-.1501,.6932-.1341,1.3759-.0069,2.0092,.293,.6036,.2858,1.1398,.7089,1.558,1.2295,.2813,.3501,.4588,.7294,.6579,1.1265,.023,.0458,.046,.0918,.069,.1608,.023,.0918,.046,.1608,.046,.1608l.2758,.7807h1.5155s15.9616-24.6774,15.9616-24.6774c-8.2973,6.6887-17.5197,14.1232-27.7075,22.3361,1.1241-.3183,2.2567-.6299,3.318-.8966Z"/><path d="M54.4266,349.611c-.2983,.1149-.5741,.2297-.8494,.3675-.3442,.1608-.6891,.3215-1.0103,.4823-.3908,.1836-.781,.3674-1.1712,.5511-.4138,.2066-.827,.4363-1.2402,.6429-.4592,.2067-.8959,.4363-1.3551,.6661-.4592,.2296-.9184,.4592-1.3776,.6889-.4822,.2296-.9419,.4593-1.4011,.6889-.4822,.2067-.9414,.4363-1.4005,.6659-.1848,.0462-.3757,.1712-.5471,.2531-.2143,.1024-.4274,.2073-.6411,.3112-.4192,.2038-.8406,.4044-1.2747,.5751-.5069,.1993-1.0102,.3074-1.556,.3074-.1149,0-.2299,0-.3448-.023-1.9747-.1378-3.5827-1.5616-4.0188-3.4217-.023-.0458-.046-.1148-.046-.1608-1.4925-5.3507-3.1919-11.3446-3.812-13.7099H0l14.3093,43.7371,41.048-33.0902c-.4519,.2299-.8472,.431-.9307,.468Z"/><path d="M124.7682,369.223c.1379-.3445,.3448-.6431,.5741-.8957l19.2673-29.8313h-32.4031c-4.1108,7.2338-24.1591,43.748-25.2383,43.748-2.0868-10.0213-7.9059-25.4923-12.5185-39.2794-3.9533,3.1865-7.9059,6.3735-11.8592,9.56l-7.865,12.1741-5.6263,8.7726c-1.516,2.2047-4.9608,8.7726-5.4889,8.7726-.6448-3.7186-1.6377-7.7934-2.759-12.196-5.3583,4.3189-15.6246,12.5946-31.3429,25.2657,.0454-.0034,.0908-.0067,.1368-.01,1.169-.0837,2.3391-.1587,3.5109-.1901,.1082-.0029,.2164-.0062,.3252-.0095,1.0832-.0327,2.1984-.0795,3.2541,.2135,2.3256,.6453,2.6576,2.5617,3.3214,4.5397,.0695,.2072,.139,.4143,.2091,.6215,.1665,.4967,.3325,.9938,.4945,1.4921,.5971,1.8372,1.2172,3.6743,1.8143,5.5345,.712,2.2047,1.4471,4.3864,2.1586,6.5909,.758,2.3195,1.516,4.6619,2.2965,6.9814,.712,2.2045,1.4471,4.4322,2.1591,6.6367,.6201,1.8601,1.2396,3.7433,1.8367,5.6034,.4362,1.309,.85,2.595,1.2862,3.8811,.1379,.4823,.2983,.9645,.4592,1.4468h1.516l23.3321-35.1362,5.7412-8.7726,3.0315,8.7726,6.7398,19.6229,35.1094-28.3027,16.5273-25.6067Z"/></g></g></g></svg>